<svg width="260" height="50" viewBox="0 0 260 50" fill="none" xmlns="http://www.w3.org/2000/svg">
<path d="M8.93359 37V11.4062H17.1777C19.4395 11.4062 21.4727 11.9219 23.2773 12.9531C25.082 13.9727 26.4883 15.4199 27.4961 17.2949C28.5156 19.1582 29.0312 21.25 29.043 23.5703V24.748C29.043 27.0918 28.5449 29.1953 27.5488 31.0586C26.5645 32.9102 25.1699 34.3633 23.3652 35.418C21.5723 36.4609 19.5684 36.9883 17.3535 37H8.93359ZM15.1035 16.1699V32.2539H17.248C19.0176 32.2539 20.377 31.627 21.3262 30.373C22.2754 29.1074 22.75 27.2324 22.75 24.748V23.6406C22.75 21.168 22.2754 19.3047 21.3262 18.0508C20.377 16.7969 18.9941 16.1699 17.1777 16.1699H15.1035Z" fill="white"/>
<path d="M53.8809 24.7305C53.8809 27.2266 53.418 29.4355 52.4922 31.3574C51.5664 33.2793 50.248 34.7617 48.5371 35.8047C46.8379 36.8359 44.8984 37.3516 42.7188 37.3516C40.5391 37.3516 38.6055 36.8535 36.918 35.8574C35.2305 34.8496 33.9121 33.4141 32.9629 31.5508C32.0254 29.6875 31.5332 27.5488 31.4863 25.1348V23.6934C31.4863 21.1855 31.9434 18.9766 32.8574 17.0664C33.7832 15.1445 35.1016 13.6621 36.8125 12.6191C38.5352 11.5762 40.4922 11.0547 42.6836 11.0547C44.8516 11.0547 46.7852 11.5703 48.4844 12.6016C50.1836 13.6328 51.502 15.1035 52.4395 17.0137C53.3887 18.9121 53.8691 21.0918 53.8809 23.5527V24.7305ZM47.6055 23.6582C47.6055 21.1152 47.1777 19.1875 46.3223 17.875C45.4785 16.5508 44.2656 15.8887 42.6836 15.8887C39.5898 15.8887 37.9551 18.209 37.7793 22.8496L37.7617 24.7305C37.7617 27.2383 38.1777 29.166 39.0098 30.5137C39.8418 31.8613 41.0781 32.5352 42.7188 32.5352C44.2773 32.5352 45.4785 31.873 46.3223 30.5488C47.166 29.2246 47.5938 27.3203 47.6055 24.8359V23.6582Z" fill="white"/>
<path d="M75.6426 16.1699H67.9609V37H61.791V16.1699H54.25V11.4062H75.6426V16.1699Z" fill="white"/>
<path d="M91.1816 30.1973C91.1816 29.2949 90.8594 28.5918 90.2148 28.0879C89.582 27.584 88.4629 27.0625 86.8574 26.5234C85.252 25.9844 83.9395 25.4629 82.9199 24.959C79.6035 23.3301 77.9453 21.0918 77.9453 18.2441C77.9453 16.8262 78.3555 15.5781 79.1758 14.5C80.0078 13.4102 81.1797 12.5664 82.6914 11.9688C84.2031 11.3594 85.9023 11.0547 87.7891 11.0547C89.6289 11.0547 91.2754 11.3828 92.7285 12.0391C94.1934 12.6953 95.3301 13.6328 96.1387 14.8516C96.9473 16.0586 97.3516 17.4414 97.3516 19H91.1992C91.1992 17.957 90.877 17.1484 90.2324 16.5742C89.5996 16 88.7383 15.7129 87.6484 15.7129C86.5469 15.7129 85.6738 15.959 85.0293 16.4512C84.3965 16.9316 84.0801 17.5469 84.0801 18.2969C84.0801 18.9531 84.4316 19.5508 85.1348 20.0898C85.8379 20.6172 87.0742 21.168 88.8438 21.7422C90.6133 22.3047 92.0664 22.9141 93.2031 23.5703C95.9688 25.1641 97.3516 27.3613 97.3516 30.1621C97.3516 32.4004 96.5078 34.1582 94.8203 35.4355C93.1328 36.7129 90.8184 37.3516 87.877 37.3516C85.8027 37.3516 83.9219 36.9824 82.2344 36.2441C80.5586 35.4941 79.293 34.4746 78.4375 33.1855C77.5938 31.8848 77.1719 30.3906 77.1719 28.7031H83.3594C83.3594 30.0742 83.7109 31.0879 84.4141 31.7441C85.1289 32.3887 86.2832 32.7109 87.877 32.7109C88.8965 32.7109 89.6992 32.4941 90.2852 32.0605C90.8828 31.6152 91.1816 30.9941 91.1816 30.1973Z" fill="white"/>
<path d="M108.5 9L108.5 41" stroke="white" stroke-width="0.5"/>
<path d="M120.5 22.665H119.523V26H118.923V18.8906H119.523V22.1523H120.471L123.22 18.8906H123.977L121.057 22.3867L124.191 26H123.444L120.5 22.665Z" fill="white"/>
<path d="M124.689 23.2803C124.689 22.7725 124.787 22.3151 124.982 21.9082C125.181 21.5013 125.459 21.1855 125.817 20.9609C126.179 20.7331 126.587 20.6191 127.043 20.6191C127.746 20.6191 128.316 20.8665 128.752 21.3613C129.188 21.8529 129.406 22.5055 129.406 23.3193V23.4414C129.406 23.9525 129.307 24.4131 129.108 24.8232C128.913 25.2301 128.636 25.5443 128.278 25.7656C127.92 25.987 127.512 26.0977 127.053 26.0977C126.353 26.0977 125.783 25.8519 125.344 25.3604C124.908 24.8656 124.689 24.2113 124.689 23.3975V23.2803ZM125.275 23.4414C125.275 24.0729 125.438 24.5921 125.764 24.999C126.092 25.4027 126.522 25.6045 127.053 25.6045C127.58 25.6045 128.007 25.4027 128.332 24.999C128.661 24.5921 128.825 24.0566 128.825 23.3926V23.2803C128.825 22.8766 128.75 22.5072 128.601 22.1719C128.451 21.8366 128.241 21.5778 127.971 21.3955C127.701 21.21 127.391 21.1172 127.043 21.1172C126.522 21.1172 126.097 21.3223 125.769 21.7324C125.44 22.1393 125.275 22.6732 125.275 23.334V23.4414Z" fill="white"/>
<path d="M134.675 26H134.089V23.5781H131.242V26H130.656V20.7168H131.242V23.085H134.089V20.7168H134.675V26Z" fill="white"/>
<path d="M136.022 23.4023C136.022 22.543 136.19 21.8643 136.525 21.3662C136.864 20.8682 137.331 20.6191 137.927 20.6191C138.269 20.6191 138.558 20.6956 138.796 20.8486V18.5H139.377V20.8682C139.618 20.7021 139.917 20.6191 140.275 20.6191C140.839 20.6191 141.289 20.8454 141.628 21.2979C141.966 21.7503 142.15 22.3802 142.18 23.1875L142.185 23.5049C142.185 24.3089 142.015 24.9437 141.677 25.4092C141.338 25.8714 140.874 26.1025 140.285 26.1025C139.934 26.1025 139.631 26.026 139.377 25.873V28.0312H138.796V25.8779C138.545 26.0277 138.252 26.1025 137.917 26.1025C137.36 26.1025 136.914 25.8926 136.579 25.4727C136.244 25.0495 136.06 24.4652 136.027 23.7197L136.022 23.4023ZM141.604 23.4023C141.604 22.6927 141.475 22.1344 141.218 21.7275C140.964 21.3206 140.607 21.1172 140.148 21.1172C139.816 21.1172 139.559 21.1888 139.377 21.332V25.4189C139.582 25.5459 139.842 25.6094 140.158 25.6094C140.614 25.6094 140.969 25.4271 141.223 25.0625C141.477 24.6947 141.604 24.1413 141.604 23.4023ZM136.608 23.5049C136.608 24.1689 136.73 24.6865 136.975 25.0576C137.219 25.4255 137.57 25.6094 138.029 25.6094C138.335 25.6094 138.591 25.5426 138.796 25.4092V21.3174C138.607 21.1839 138.355 21.1172 138.039 21.1172C137.583 21.1172 137.23 21.3206 136.979 21.7275C136.732 22.1312 136.608 22.7236 136.608 23.5049Z" fill="white"/>
<path d="M146.96 20.7168H147.546V26H146.96V21.6592L144.108 26H143.527V20.7168H144.108V25.0625L146.96 20.7168Z" fill="white"/>
<path d="M152.404 21.2197H149.733V26H149.147V20.7168H152.404V21.2197Z" fill="white"/>
<path d="M155.007 25.1602L156.55 20.7168H157.18L154.924 26.8984L154.807 27.1719C154.517 27.8132 154.069 28.1338 153.464 28.1338C153.324 28.1338 153.174 28.111 153.015 28.0654L153.01 27.582L153.312 27.6113C153.599 27.6113 153.83 27.5397 154.006 27.3965C154.185 27.2565 154.336 27.014 154.46 26.6689L154.719 25.9561L152.727 20.7168H153.366L155.007 25.1602Z" fill="white"/>
<path d="M162.336 23.4121C162.336 24.2357 162.154 24.89 161.789 25.375C161.424 25.8568 160.936 26.0977 160.324 26.0977C159.602 26.0977 159.048 25.8438 158.664 25.3359V28.0312H158.083V20.7168H158.625L158.654 21.4639C159.035 20.9007 159.587 20.6191 160.31 20.6191C160.941 20.6191 161.436 20.8584 161.794 21.3369C162.155 21.8154 162.336 22.4795 162.336 23.3291V23.4121ZM161.75 23.3096C161.75 22.6357 161.612 22.1035 161.335 21.7129C161.058 21.3223 160.673 21.127 160.178 21.127C159.82 21.127 159.512 21.2132 159.255 21.3857C158.998 21.5583 158.801 21.8089 158.664 22.1377V24.6719C158.804 24.9746 159.004 25.2057 159.265 25.3652C159.525 25.5247 159.833 25.6045 160.188 25.6045C160.679 25.6045 161.062 25.4092 161.335 25.0186C161.612 24.6247 161.75 24.055 161.75 23.3096Z" fill="white"/>
<path d="M166.97 26C166.911 25.834 166.874 25.5882 166.857 25.2627C166.652 25.5296 166.39 25.7363 166.071 25.8828C165.756 26.026 165.42 26.0977 165.065 26.0977C164.558 26.0977 164.146 25.9561 163.83 25.6729C163.518 25.3896 163.361 25.0316 163.361 24.5986C163.361 24.0843 163.575 23.6774 164.001 23.3779C164.431 23.0785 165.028 22.9287 165.793 22.9287H166.853V22.3281C166.853 21.9505 166.735 21.6543 166.501 21.4395C166.27 21.2214 165.931 21.1123 165.485 21.1123C165.078 21.1123 164.742 21.2165 164.475 21.4248C164.208 21.6331 164.074 21.8838 164.074 22.1768L163.488 22.1719C163.488 21.752 163.684 21.389 164.074 21.083C164.465 20.7738 164.945 20.6191 165.515 20.6191C166.104 20.6191 166.568 20.7673 166.906 21.0635C167.248 21.3564 167.424 21.7666 167.434 22.2939V24.7939C167.434 25.305 167.487 25.6875 167.595 25.9414V26H166.97ZM165.134 25.5801C165.524 25.5801 165.873 25.4857 166.179 25.2969C166.488 25.1081 166.713 24.8558 166.853 24.54V23.3779H165.808C165.225 23.3844 164.769 23.4919 164.44 23.7002C164.112 23.9053 163.947 24.1885 163.947 24.5498C163.947 24.846 164.056 25.0918 164.274 25.2871C164.496 25.4824 164.782 25.5801 165.134 25.5801Z" fill="white"/>
<path d="M172.712 21.2148H170.788V26H170.202V21.2148H168.352V20.7168H172.712V21.2148Z" fill="white"/>
<path d="M173.146 23.2803C173.146 22.7725 173.244 22.3151 173.439 21.9082C173.638 21.5013 173.916 21.1855 174.274 20.9609C174.636 20.7331 175.044 20.6191 175.5 20.6191C176.203 20.6191 176.773 20.8665 177.209 21.3613C177.645 21.8529 177.863 22.5055 177.863 23.3193V23.4414C177.863 23.9525 177.764 24.4131 177.565 24.8232C177.37 25.2301 177.093 25.5443 176.735 25.7656C176.377 25.987 175.969 26.0977 175.51 26.0977C174.81 26.0977 174.24 25.8519 173.801 25.3604C173.365 24.8656 173.146 24.2113 173.146 23.3975V23.2803ZM173.732 23.4414C173.732 24.0729 173.895 24.5921 174.221 24.999C174.549 25.4027 174.979 25.6045 175.51 25.6045C176.037 25.6045 176.464 25.4027 176.789 24.999C177.118 24.5921 177.282 24.0566 177.282 23.3926V23.2803C177.282 22.8766 177.207 22.5072 177.058 22.1719C176.908 21.8366 176.698 21.5778 176.428 21.3955C176.158 21.21 175.848 21.1172 175.5 21.1172C174.979 21.1172 174.554 21.3223 174.226 21.7324C173.897 22.1393 173.732 22.6732 173.732 23.334V23.4414Z" fill="white"/>
<path d="M183.322 23.4121C183.322 24.2357 183.14 24.89 182.775 25.375C182.411 25.8568 181.923 26.0977 181.311 26.0977C180.588 26.0977 180.035 25.8438 179.65 25.3359V28.0312H179.069V20.7168H179.611L179.641 21.4639C180.021 20.9007 180.573 20.6191 181.296 20.6191C181.927 20.6191 182.422 20.8584 182.78 21.3369C183.142 21.8154 183.322 22.4795 183.322 23.3291V23.4121ZM182.736 23.3096C182.736 22.6357 182.598 22.1035 182.321 21.7129C182.045 21.3223 181.659 21.127 181.164 21.127C180.806 21.127 180.498 21.2132 180.241 21.3857C179.984 21.5583 179.787 21.8089 179.65 22.1377V24.6719C179.79 24.9746 179.991 25.2057 180.251 25.3652C180.511 25.5247 180.819 25.6045 181.174 25.6045C181.665 25.6045 182.048 25.4092 182.321 25.0186C182.598 24.6247 182.736 24.055 182.736 23.3096Z" fill="white"/>
<path d="M187.116 26V20.7168H189.055C189.725 20.7168 190.24 20.8372 190.598 21.0781C190.956 21.3158 191.135 21.6657 191.135 22.1279C191.135 22.3916 191.055 22.6276 190.896 22.8359C190.736 23.041 190.503 23.1908 190.197 23.2852C190.542 23.3503 190.819 23.4984 191.027 23.7295C191.239 23.9606 191.345 24.2292 191.345 24.5352C191.345 25.0007 191.172 25.362 190.827 25.6191C190.485 25.873 190 26 189.372 26H187.116ZM187.697 23.5684V25.5117H189.392C189.831 25.5117 190.17 25.4271 190.407 25.2578C190.645 25.0885 190.764 24.8444 190.764 24.5254C190.764 24.2324 190.645 23.9997 190.407 23.8271C190.17 23.6546 189.831 23.5684 189.392 23.5684H187.697ZM187.697 23.0801H189.177C190.095 23.0671 190.554 22.7546 190.554 22.1426C190.554 21.8203 190.427 21.5859 190.173 21.4395C189.922 21.2897 189.549 21.2148 189.055 21.2148H187.697V23.0801Z" fill="white"/>
<path d="M196.12 20.7168H196.706V26H196.12V21.6592L193.269 26H192.688V20.7168H193.269V25.0625L196.12 20.7168Z" fill="white"/>
<path d="M201.369 22.1133C201.369 21.7943 201.25 21.5485 201.013 21.376C200.775 21.2035 200.448 21.1172 200.031 21.1172C199.654 21.1172 199.33 21.2148 199.06 21.4102C198.793 21.6022 198.659 21.8464 198.659 22.1426H198.078C198.078 21.7031 198.265 21.3402 198.64 21.0537C199.017 20.7673 199.481 20.624 200.031 20.624C200.637 20.624 201.109 20.7542 201.447 21.0146C201.786 21.2751 201.955 21.6445 201.955 22.123C201.955 22.377 201.877 22.6064 201.721 22.8115C201.564 23.0166 201.337 23.1761 201.037 23.29C201.714 23.4756 202.053 23.8955 202.053 24.5498C202.053 25.0251 201.869 25.401 201.501 25.6777C201.133 25.9544 200.645 26.0928 200.036 26.0928C199.447 26.0928 198.959 25.9447 198.571 25.6484C198.184 25.3522 197.99 24.9648 197.99 24.4863H198.576C198.576 24.8053 198.716 25.0723 198.996 25.2871C199.279 25.4987 199.626 25.6045 200.036 25.6045C200.482 25.6045 200.83 25.5117 201.081 25.3262C201.335 25.1374 201.462 24.8818 201.462 24.5596C201.462 24.2048 201.346 23.9492 201.115 23.793C200.884 23.6367 200.531 23.5586 200.056 23.5586H199.25V23.0508H200.153C200.964 23.0312 201.369 22.7188 201.369 22.1133Z" fill="white"/>
<path d="M205.017 25.1602L206.56 20.7168H207.189L204.934 26.8984L204.816 27.1719C204.527 27.8132 204.079 28.1338 203.474 28.1338C203.334 28.1338 203.184 28.111 203.024 28.0654L203.02 27.582L203.322 27.6113C203.609 27.6113 203.84 27.5397 204.016 27.3965C204.195 27.2565 204.346 27.014 204.47 26.6689L204.729 25.9561L202.736 20.7168H203.376L205.017 25.1602Z" fill="white"/>
<path d="M211.354 26C211.296 25.834 211.258 25.5882 211.242 25.2627C211.037 25.5296 210.775 25.7363 210.456 25.8828C210.14 26.026 209.805 26.0977 209.45 26.0977C208.942 26.0977 208.531 25.9561 208.215 25.6729C207.902 25.3896 207.746 25.0316 207.746 24.5986C207.746 24.0843 207.959 23.6774 208.386 23.3779C208.815 23.0785 209.413 22.9287 210.178 22.9287H211.237V22.3281C211.237 21.9505 211.12 21.6543 210.886 21.4395C210.655 21.2214 210.316 21.1123 209.87 21.1123C209.463 21.1123 209.126 21.2165 208.859 21.4248C208.592 21.6331 208.459 21.8838 208.459 22.1768L207.873 22.1719C207.873 21.752 208.068 21.389 208.459 21.083C208.85 20.7738 209.33 20.6191 209.899 20.6191C210.489 20.6191 210.952 20.7673 211.291 21.0635C211.633 21.3564 211.809 21.7666 211.818 22.2939V24.7939C211.818 25.305 211.872 25.6875 211.979 25.9414V26H211.354ZM209.519 25.5801C209.909 25.5801 210.257 25.4857 210.563 25.2969C210.873 25.1081 211.097 24.8558 211.237 24.54V23.3779H210.192C209.61 23.3844 209.154 23.4919 208.825 23.7002C208.496 23.9053 208.332 24.1885 208.332 24.5498C208.332 24.846 208.441 25.0918 208.659 25.2871C208.881 25.4824 209.167 25.5801 209.519 25.5801Z" fill="white"/>
<path d="M217.443 20.7168V26H216.857V21.2197H214.694L214.602 23.1973C214.562 23.9297 214.489 24.4896 214.382 24.877C214.274 25.2611 214.115 25.5443 213.903 25.7266C213.692 25.9089 213.41 26 213.059 26H212.834V25.4824L213.015 25.4727C213.35 25.4661 213.591 25.3034 213.737 24.9844C213.884 24.6654 213.98 24.0957 214.025 23.2754L214.133 20.7168H217.443Z" fill="white"/>
<path d="M222.487 20.7168H223.073V26H222.487V21.6592L219.636 26H219.055V20.7168H219.636V25.0625L222.487 20.7168Z" fill="white"/>
<path d="M227.736 22.1133C227.736 21.7943 227.618 21.5485 227.38 21.376C227.142 21.2035 226.815 21.1172 226.398 21.1172C226.021 21.1172 225.697 21.2148 225.427 21.4102C225.16 21.6022 225.026 21.8464 225.026 22.1426H224.445C224.445 21.7031 224.632 21.3402 225.007 21.0537C225.384 20.7673 225.848 20.624 226.398 20.624C227.004 20.624 227.476 20.7542 227.814 21.0146C228.153 21.2751 228.322 21.6445 228.322 22.123C228.322 22.377 228.244 22.6064 228.088 22.8115C227.932 23.0166 227.704 23.1761 227.404 23.29C228.081 23.4756 228.42 23.8955 228.42 24.5498C228.42 25.0251 228.236 25.401 227.868 25.6777C227.5 25.9544 227.012 26.0928 226.403 26.0928C225.814 26.0928 225.326 25.9447 224.938 25.6484C224.551 25.3522 224.357 24.9648 224.357 24.4863H224.943C224.943 24.8053 225.083 25.0723 225.363 25.2871C225.646 25.4987 225.993 25.6045 226.403 25.6045C226.849 25.6045 227.198 25.5117 227.448 25.3262C227.702 25.1374 227.829 24.8818 227.829 24.5596C227.829 24.2048 227.714 23.9492 227.482 23.793C227.251 23.6367 226.898 23.5586 226.423 23.5586H225.617V23.0508H226.521C227.331 23.0312 227.736 22.7188 227.736 22.1133Z" fill="white"/>
<path d="M233.044 26C232.985 25.834 232.948 25.5882 232.932 25.2627C232.727 25.5296 232.465 25.7363 232.146 25.8828C231.83 26.026 231.494 26.0977 231.14 26.0977C230.632 26.0977 230.22 25.9561 229.904 25.6729C229.592 25.3896 229.436 25.0316 229.436 24.5986C229.436 24.0843 229.649 23.6774 230.075 23.3779C230.505 23.0785 231.102 22.9287 231.867 22.9287H232.927V22.3281C232.927 21.9505 232.81 21.6543 232.575 21.4395C232.344 21.2214 232.006 21.1123 231.56 21.1123C231.153 21.1123 230.816 21.2165 230.549 21.4248C230.282 21.6331 230.148 21.8838 230.148 22.1768L229.562 22.1719C229.562 21.752 229.758 21.389 230.148 21.083C230.539 20.7738 231.019 20.6191 231.589 20.6191C232.178 20.6191 232.642 20.7673 232.98 21.0635C233.322 21.3564 233.498 21.7666 233.508 22.2939V24.7939C233.508 25.305 233.562 25.6875 233.669 25.9414V26H233.044ZM231.208 25.5801C231.599 25.5801 231.947 25.4857 232.253 25.2969C232.562 25.1081 232.787 24.8558 232.927 24.54V23.3779H231.882C231.299 23.3844 230.843 23.4919 230.515 23.7002C230.186 23.9053 230.021 24.1885 230.021 24.5498C230.021 24.846 230.131 25.0918 230.349 25.2871C230.57 25.4824 230.856 25.5801 231.208 25.5801Z" fill="white"/>
<path d="M235.109 20.7168H235.695V25.5068H238.542V20.7168H239.128V25.5068H239.665L239.621 27.5674H239.084V26H235.109V20.7168Z" fill="white"/>
<path d="M244.235 20.7168H244.821V26H244.235V21.6592L241.384 26H240.803V20.7168H241.384V25.0625L244.235 20.7168Z" fill="white"/>
<path d="M249.86 20.7168H250.446V26H249.86V21.6592L247.009 26H246.428V20.7168H247.009V25.0625L249.86 20.7168Z" fill="white"/>
<path d="M122.556 33.2148H120.632V38H120.046V33.2148H118.195V32.7168H122.556V33.2148Z" fill="white"/>
<path d="M125.173 38.0977C124.724 38.0977 124.317 37.987 123.952 37.7656C123.591 37.5443 123.309 37.2367 123.107 36.8428C122.906 36.4456 122.805 36.0013 122.805 35.5098V35.2998C122.805 34.792 122.902 34.3346 123.098 33.9277C123.296 33.5208 123.571 33.2018 123.923 32.9707C124.274 32.7363 124.655 32.6191 125.065 32.6191C125.707 32.6191 126.215 32.8389 126.589 33.2783C126.966 33.7145 127.155 34.3118 127.155 35.0703V35.3975H123.386V35.5098C123.386 36.1087 123.557 36.6084 123.898 37.0088C124.243 37.4059 124.676 37.6045 125.197 37.6045C125.51 37.6045 125.785 37.5475 126.022 37.4336C126.263 37.3197 126.481 37.1374 126.677 36.8867L127.043 37.165C126.613 37.7868 125.99 38.0977 125.173 38.0977ZM125.065 33.1172C124.626 33.1172 124.255 33.2783 123.952 33.6006C123.653 33.9229 123.47 34.3558 123.405 34.8994H126.574V34.8359C126.558 34.3281 126.413 33.9147 126.14 33.5957C125.866 33.2767 125.508 33.1172 125.065 33.1172Z" fill="white"/>
<path d="M129.953 34.8604L131.379 32.7168H132.072L130.28 35.3096L132.15 38H131.462L129.958 35.7637L128.454 38H127.766L129.631 35.3096L127.839 32.7168H128.527L129.953 34.8604Z" fill="white"/>
<path d="M137.214 38H136.628V35.5781H133.781V38H133.195V32.7168H133.781V35.085H136.628V32.7168H137.214V38Z" fill="white"/>
<path d="M138.459 35.2803C138.459 34.7725 138.557 34.3151 138.752 33.9082C138.951 33.5013 139.229 33.1855 139.587 32.9609C139.948 32.7331 140.357 32.6191 140.812 32.6191C141.516 32.6191 142.085 32.8665 142.521 33.3613C142.958 33.8529 143.176 34.5055 143.176 35.3193V35.4414C143.176 35.9525 143.076 36.4131 142.878 36.8232C142.683 37.2301 142.406 37.5443 142.048 37.7656C141.69 37.987 141.281 38.0977 140.822 38.0977C140.122 38.0977 139.553 37.8519 139.113 37.3604C138.677 36.8656 138.459 36.2113 138.459 35.3975V35.2803ZM139.045 35.4414C139.045 36.0729 139.208 36.5921 139.533 36.999C139.862 37.4027 140.292 37.6045 140.822 37.6045C141.35 37.6045 141.776 37.4027 142.102 36.999C142.43 36.5921 142.595 36.0566 142.595 35.3926V35.2803C142.595 34.8766 142.52 34.5072 142.37 34.1719C142.22 33.8366 142.01 33.5778 141.74 33.3955C141.47 33.21 141.161 33.1172 140.812 33.1172C140.292 33.1172 139.867 33.3223 139.538 33.7324C139.209 34.1393 139.045 34.6732 139.045 35.334V35.4414Z" fill="white"/>
<path d="M148.371 32.7168V38H147.785V33.2197H145.622L145.529 35.1973C145.49 35.9297 145.417 36.4896 145.31 36.877C145.202 37.2611 145.043 37.5443 144.831 37.7266C144.619 37.9089 144.338 38 143.986 38H143.762V37.4824L143.942 37.4727C144.278 37.4661 144.519 37.3034 144.665 36.9844C144.812 36.6654 144.908 36.0957 144.953 35.2754L145.061 32.7168H148.371Z" fill="white"/>
<path d="M149.621 35.2803C149.621 34.7725 149.719 34.3151 149.914 33.9082C150.113 33.5013 150.391 33.1855 150.749 32.9609C151.11 32.7331 151.519 32.6191 151.975 32.6191C152.678 32.6191 153.247 32.8665 153.684 33.3613C154.12 33.8529 154.338 34.5055 154.338 35.3193V35.4414C154.338 35.9525 154.239 36.4131 154.04 36.8232C153.845 37.2301 153.568 37.5443 153.21 37.7656C152.852 37.987 152.443 38.0977 151.984 38.0977C151.285 38.0977 150.715 37.8519 150.275 37.3604C149.839 36.8656 149.621 36.2113 149.621 35.3975V35.2803ZM150.207 35.4414C150.207 36.0729 150.37 36.5921 150.695 36.999C151.024 37.4027 151.454 37.6045 151.984 37.6045C152.512 37.6045 152.938 37.4027 153.264 36.999C153.592 36.5921 153.757 36.0566 153.757 35.3926V35.2803C153.757 34.8766 153.682 34.5072 153.532 34.1719C153.382 33.8366 153.173 33.5778 152.902 33.3955C152.632 33.21 152.323 33.1172 151.975 33.1172C151.454 33.1172 151.029 33.3223 150.7 33.7324C150.371 34.1393 150.207 34.6732 150.207 35.334V35.4414Z" fill="white"/>
<path d="M158.84 33.2197H156.169V38H155.583V32.7168H158.84V33.2197Z" fill="white"/>
<path d="M163.239 32.7168H163.825V38H163.239V33.6592L160.388 38H159.807V32.7168H160.388V37.0625L163.239 32.7168Z" fill="white"/>
<path d="M169.152 38H168.566V35.7783C168.085 35.9541 167.624 36.042 167.185 36.042C166.485 36.042 165.977 35.889 165.661 35.583C165.345 35.2738 165.181 34.7936 165.168 34.1426V32.7168H165.749V34.1133C165.756 34.6178 165.866 34.9824 166.081 35.207C166.299 35.4284 166.667 35.5391 167.185 35.5391C167.657 35.526 168.117 35.4414 168.566 35.2852V32.7168H169.152V38Z" fill="white"/>
<path d="M172.761 38.0977C172.312 38.0977 171.905 37.987 171.54 37.7656C171.179 37.5443 170.897 37.2367 170.695 36.8428C170.493 36.4456 170.393 36.0013 170.393 35.5098V35.2998C170.393 34.792 170.49 34.3346 170.686 33.9277C170.884 33.5208 171.159 33.2018 171.511 32.9707C171.862 32.7363 172.243 32.6191 172.653 32.6191C173.295 32.6191 173.802 32.8389 174.177 33.2783C174.554 33.7145 174.743 34.3118 174.743 35.0703V35.3975H170.974V35.5098C170.974 36.1087 171.145 36.6084 171.486 37.0088C171.831 37.4059 172.264 37.6045 172.785 37.6045C173.098 37.6045 173.373 37.5475 173.61 37.4336C173.851 37.3197 174.069 37.1374 174.265 36.8867L174.631 37.165C174.201 37.7868 173.578 38.0977 172.761 38.0977ZM172.653 33.1172C172.214 33.1172 171.843 33.2783 171.54 33.6006C171.241 33.9229 171.058 34.3558 170.993 34.8994H174.162V34.8359C174.146 34.3281 174.001 33.9147 173.728 33.5957C173.454 33.2767 173.096 33.1172 172.653 33.1172Z" fill="white"/>
<path d="M177.834 37.6045C178.241 37.6045 178.581 37.4906 178.854 37.2627C179.131 37.0316 179.281 36.7337 179.304 36.3691H179.865C179.849 36.6914 179.748 36.986 179.562 37.2529C179.377 37.5166 179.13 37.7233 178.82 37.873C178.514 38.0228 178.186 38.0977 177.834 38.0977C177.141 38.0977 176.59 37.8568 176.184 37.375C175.78 36.8932 175.578 36.2454 175.578 35.4316V35.2559C175.578 34.735 175.669 34.2744 175.852 33.874C176.034 33.4736 176.294 33.1644 176.633 32.9463C176.975 32.7282 177.373 32.6191 177.829 32.6191C178.409 32.6191 178.885 32.7917 179.26 33.1367C179.637 33.4818 179.839 33.9359 179.865 34.499H179.304C179.278 34.0856 179.128 33.752 178.854 33.498C178.584 33.2441 178.243 33.1172 177.829 33.1172C177.302 33.1172 176.892 33.3076 176.599 33.6885C176.309 34.0693 176.164 34.6032 176.164 35.29V35.4609C176.164 36.1348 176.309 36.6605 176.599 37.0381C176.892 37.4157 177.303 37.6045 177.834 37.6045Z" fill="white"/>
<path d="M182.473 35.5781H181.662V38H181.071V32.7168H181.662V35.0605H182.463L184.401 32.7168H185.139L182.971 35.2803L185.378 38H184.606L182.473 35.5781Z" fill="white"/>
<path d="M189.694 32.7168H190.28V38H189.694V33.6592L186.843 38H186.262V32.7168H186.843V37.0625L189.694 32.7168Z" fill="white"/>
<path d="M193.508 34.8604L194.934 32.7168H195.627L193.835 35.3096L195.705 38H195.017L193.513 35.7637L192.009 38H191.32L193.186 35.3096L191.394 32.7168H192.082L193.508 34.8604Z" fill="white"/>
<path d="M203.2 38H202.614V33.2197H199.768V38H199.182V32.7168H203.2V38Z" fill="white"/>
<path d="M209.016 35.4121C209.016 36.2357 208.833 36.89 208.469 37.375C208.104 37.8568 207.616 38.0977 207.004 38.0977C206.281 38.0977 205.728 37.8438 205.344 37.3359V40.0312H204.763V32.7168H205.305L205.334 33.4639C205.715 32.9007 206.267 32.6191 206.989 32.6191C207.621 32.6191 208.116 32.8584 208.474 33.3369C208.835 33.8154 209.016 34.4795 209.016 35.3291V35.4121ZM208.43 35.3096C208.43 34.6357 208.291 34.1035 208.015 33.7129C207.738 33.3223 207.352 33.127 206.857 33.127C206.499 33.127 206.192 33.2132 205.935 33.3857C205.677 33.5583 205.48 33.8089 205.344 34.1377V36.6719C205.484 36.9746 205.684 37.2057 205.944 37.3652C206.205 37.5247 206.512 37.6045 206.867 37.6045C207.359 37.6045 207.741 37.4092 208.015 37.0186C208.291 36.6247 208.43 36.055 208.43 35.3096Z" fill="white"/>
<path d="M209.992 35.2803C209.992 34.7725 210.09 34.3151 210.285 33.9082C210.484 33.5013 210.762 33.1855 211.12 32.9609C211.481 32.7331 211.89 32.6191 212.346 32.6191C213.049 32.6191 213.618 32.8665 214.055 33.3613C214.491 33.8529 214.709 34.5055 214.709 35.3193V35.4414C214.709 35.9525 214.61 36.4131 214.411 36.8232C214.216 37.2301 213.939 37.5443 213.581 37.7656C213.223 37.987 212.814 38.0977 212.355 38.0977C211.656 38.0977 211.086 37.8519 210.646 37.3604C210.21 36.8656 209.992 36.2113 209.992 35.3975V35.2803ZM210.578 35.4414C210.578 36.0729 210.741 36.5921 211.066 36.999C211.395 37.4027 211.825 37.6045 212.355 37.6045C212.883 37.6045 213.309 37.4027 213.635 36.999C213.964 36.5921 214.128 36.0566 214.128 35.3926V35.2803C214.128 34.8766 214.053 34.5072 213.903 34.1719C213.754 33.8366 213.544 33.5778 213.273 33.3955C213.003 33.21 212.694 33.1172 212.346 33.1172C211.825 33.1172 211.4 33.3223 211.071 33.7324C210.743 34.1393 210.578 34.6732 210.578 35.334V35.4414Z" fill="white"/>
<path d="M215.959 32.7168H216.545V37.5068H219.392V32.7168H219.978V37.5068H220.515L220.471 39.5674H219.934V38H215.959V32.7168Z" fill="white"/>
<path d="M223.659 38.0977C223.21 38.0977 222.803 37.987 222.438 37.7656C222.077 37.5443 221.796 37.2367 221.594 36.8428C221.392 36.4456 221.291 36.0013 221.291 35.5098V35.2998C221.291 34.792 221.389 34.3346 221.584 33.9277C221.783 33.5208 222.058 33.2018 222.409 32.9707C222.761 32.7363 223.142 32.6191 223.552 32.6191C224.193 32.6191 224.701 32.8389 225.075 33.2783C225.453 33.7145 225.642 34.3118 225.642 35.0703V35.3975H221.872V35.5098C221.872 36.1087 222.043 36.6084 222.385 37.0088C222.73 37.4059 223.163 37.6045 223.684 37.6045C223.996 37.6045 224.271 37.5475 224.509 37.4336C224.75 37.3197 224.968 37.1374 225.163 36.8867L225.529 37.165C225.1 37.7868 224.476 38.0977 223.659 38.0977ZM223.552 33.1172C223.112 33.1172 222.741 33.2783 222.438 33.6006C222.139 33.9229 221.957 34.3558 221.892 34.8994H225.061V34.8359C225.044 34.3281 224.899 33.9147 224.626 33.5957C224.353 33.2767 223.994 33.1172 223.552 33.1172Z" fill="white"/>
<path d="M228.732 37.6045C229.139 37.6045 229.479 37.4906 229.753 37.2627C230.03 37.0316 230.179 36.7337 230.202 36.3691H230.764C230.747 36.6914 230.646 36.986 230.461 37.2529C230.275 37.5166 230.028 37.7233 229.719 37.873C229.413 38.0228 229.084 38.0977 228.732 38.0977C228.039 38.0977 227.489 37.8568 227.082 37.375C226.678 36.8932 226.477 36.2454 226.477 35.4316V35.2559C226.477 34.735 226.568 34.2744 226.75 33.874C226.932 33.4736 227.193 33.1644 227.531 32.9463C227.873 32.7282 228.272 32.6191 228.728 32.6191C229.307 32.6191 229.784 32.7917 230.158 33.1367C230.536 33.4818 230.738 33.9359 230.764 34.499H230.202C230.176 34.0856 230.026 33.752 229.753 33.498C229.483 33.2441 229.141 33.1172 228.728 33.1172C228.2 33.1172 227.79 33.3076 227.497 33.6885C227.207 34.0693 227.062 34.6032 227.062 35.29V35.4609C227.062 36.1348 227.207 36.6605 227.497 37.0381C227.79 37.4157 228.202 37.6045 228.732 37.6045Z" fill="white"/>
<path d="M233.889 37.6045C234.296 37.6045 234.636 37.4906 234.909 37.2627C235.186 37.0316 235.336 36.7337 235.358 36.3691H235.92C235.904 36.6914 235.803 36.986 235.617 37.2529C235.432 37.5166 235.184 37.7233 234.875 37.873C234.569 38.0228 234.24 38.0977 233.889 38.0977C233.195 38.0977 232.645 37.8568 232.238 37.375C231.835 36.8932 231.633 36.2454 231.633 35.4316V35.2559C231.633 34.735 231.724 34.2744 231.906 33.874C232.089 33.4736 232.349 33.1644 232.688 32.9463C233.029 32.7282 233.428 32.6191 233.884 32.6191C234.463 32.6191 234.94 32.7917 235.314 33.1367C235.692 33.4818 235.894 33.9359 235.92 34.499H235.358C235.332 34.0856 235.183 33.752 234.909 33.498C234.639 33.2441 234.297 33.1172 233.884 33.1172C233.356 33.1172 232.946 33.3076 232.653 33.6885C232.364 34.0693 232.219 34.6032 232.219 35.29V35.4609C232.219 36.1348 232.364 36.6605 232.653 37.0381C232.946 37.4157 233.358 37.6045 233.889 37.6045Z" fill="white"/>
<path d="M236.77 35.2803C236.77 34.7725 236.867 34.3151 237.062 33.9082C237.261 33.5013 237.539 33.1855 237.897 32.9609C238.259 32.7331 238.667 32.6191 239.123 32.6191C239.826 32.6191 240.396 32.8665 240.832 33.3613C241.268 33.8529 241.486 34.5055 241.486 35.3193V35.4414C241.486 35.9525 241.387 36.4131 241.188 36.8232C240.993 37.2301 240.716 37.5443 240.358 37.7656C240 37.987 239.592 38.0977 239.133 38.0977C238.433 38.0977 237.863 37.8519 237.424 37.3604C236.988 36.8656 236.77 36.2113 236.77 35.3975V35.2803ZM237.355 35.4414C237.355 36.0729 237.518 36.5921 237.844 36.999C238.173 37.4027 238.602 37.6045 239.133 37.6045C239.66 37.6045 240.087 37.4027 240.412 36.999C240.741 36.5921 240.905 36.0566 240.905 35.3926V35.2803C240.905 34.8766 240.83 34.5072 240.681 34.1719C240.531 33.8366 240.321 33.5778 240.051 33.3955C239.781 33.21 239.471 33.1172 239.123 33.1172C238.602 33.1172 238.177 33.3223 237.849 33.7324C237.52 34.1393 237.355 34.6732 237.355 35.334V35.4414Z" fill="white"/>
<path d="M242.761 38V32.7168H244.699C245.37 32.7168 245.884 32.8372 246.242 33.0781C246.6 33.3158 246.779 33.6657 246.779 34.1279C246.779 34.3916 246.7 34.6276 246.54 34.8359C246.381 35.041 246.148 35.1908 245.842 35.2852C246.187 35.3503 246.464 35.4984 246.672 35.7295C246.883 35.9606 246.989 36.2292 246.989 36.5352C246.989 37.0007 246.817 37.362 246.472 37.6191C246.13 37.873 245.645 38 245.017 38H242.761ZM243.342 35.5684V37.5117H245.036C245.476 37.5117 245.814 37.4271 246.052 37.2578C246.289 37.0885 246.408 36.8444 246.408 36.5254C246.408 36.2324 246.289 35.9997 246.052 35.8271C245.814 35.6546 245.476 35.5684 245.036 35.5684H243.342ZM243.342 35.0801H244.821C245.739 35.0671 246.198 34.7546 246.198 34.1426C246.198 33.8203 246.071 33.5859 245.817 33.4395C245.567 33.2897 245.194 33.2148 244.699 33.2148H243.342V35.0801Z" fill="white"/>
</svg>
