<svg width="150" height="164" viewBox="0 0 150 164" fill="none" xmlns="http://www.w3.org/2000/svg">
<path d="M43.1297 163.798C36.9016 162.708 32.886 156.852 33.9815 150.456C34.5576 147.092 35.9126 145.035 38.3562 143.816C40.1275 142.932 41.7766 142.873 43.0466 143.649C44.1932 144.349 44.2632 144.85 43.1559 144.432C42.4902 144.18 42.1435 144.228 41.2406 144.694C38.9233 145.892 38.109 148.679 39.5689 150.416C41.1219 152.264 44.7499 153.128 46.6778 152.109C47.9994 151.41 49.9474 149.242 52.4893 145.641C55.6494 141.163 58.0437 138.775 60.6948 137.457C62.8058 136.408 62.8112 136.407 66.5117 136.407C69.9924 136.407 70.322 136.456 71.9812 137.224C73.1102 137.746 74.2641 138.588 75.1816 139.559L76.6165 141.078L78.2781 139.414C80.5234 137.166 82.2656 136.494 86.2474 136.338C92.3393 136.099 95.4736 138.048 100.525 145.214C103.371 149.252 104.849 150.943 106.204 151.717C107.866 152.665 108.652 152.788 110.312 152.357C113.19 151.609 114.87 149.753 114.493 147.738C114.093 145.604 111.324 143.708 109.77 144.503C109.106 144.843 109.108 144.833 109.844 144.07C111.405 142.456 114.759 142.98 116.957 145.181C117.442 145.666 118.168 146.767 118.571 147.628C119.226 149.026 119.304 149.539 119.304 152.459C119.304 155.408 119.23 155.884 118.544 157.349C116.172 162.418 111.623 164.633 105.222 163.836C100.188 163.21 97.673 162.21 92.5219 158.785C88.3833 156.033 86.424 155.318 82.9843 155.306C80.1576 155.296 78.5637 154.954 77.365 154.101C76.6578 153.598 76.516 153.582 76.0882 153.955C75.0152 154.891 74.0572 155.122 70.4684 155.311C66.0485 155.543 65.2987 155.824 60.3455 159.113C56.8677 161.422 54.7149 162.429 51.4972 163.252C48.9695 163.898 45.134 164.148 43.1297 163.798ZM109.217 158.619C110.507 157.981 111.406 157.273 112.267 156.213C112.938 155.387 113.487 154.607 113.487 154.481C113.487 154.355 112.767 154.615 111.887 155.06C110.691 155.664 109.883 155.868 108.695 155.866C105.896 155.861 104.666 155.048 98.9054 149.393C93.746 144.329 91.5295 142.568 89.3413 141.795C87.887 141.282 85.7655 141.273 84.8573 141.777C84.2009 142.141 84.2458 142.177 86.1063 142.779C90.4629 144.188 92.7557 145.765 98.9697 151.627C103.668 156.06 104.811 156.892 106.715 157.267L107.954 157.511L106.535 157.539C104.324 157.583 102.63 156.613 99.1686 153.321C93.9378 148.347 89.3743 145.407 85.2656 144.365C82.5759 143.683 81.7965 143.776 81.1368 144.859C80.2845 146.259 80.3968 146.723 81.6365 146.923C84.0051 147.306 85.6449 147.74 87.738 148.538C89.9154 149.367 93.976 151.882 95.8949 153.59C96.787 154.384 96.6861 154.352 94.9018 153.278C90.7866 150.801 85.9156 148.876 82.9843 148.567C81.3965 148.4 81.309 148.421 81.6848 148.877C82.286 149.607 84.0793 150.591 87.9698 152.326C89.891 153.183 92.3644 154.505 93.4661 155.266C98.0757 158.447 102.386 159.934 106.11 159.628C106.812 159.571 108.21 159.117 109.217 158.619V158.619ZM54.0987 158.46C55.3784 157.956 57.6767 156.702 59.2061 155.675C60.7355 154.648 63.5656 153.116 65.4951 152.271C68.8977 150.781 71.7762 149.144 71.7762 148.699C71.7762 148.32 70.2394 148.462 67.9201 149.056C65.7986 149.599 60.039 152.221 57.8725 153.63C55.928 154.895 57.7633 153.174 60.0388 151.599C63.7693 149.017 67.1698 147.67 71.8472 146.921C73.0831 146.724 73.1286 146.531 72.2915 145.04C71.572 143.758 71.0643 143.677 68.1186 144.372C64.0564 145.331 59.3016 148.388 54.0745 153.4C50.804 156.537 49.351 157.369 46.9482 157.484L45.2457 157.565L46.8148 157.207C48.8122 156.751 49.5873 156.19 53.814 152.146C60.1999 146.037 62.6917 144.275 66.8691 142.914L69.3245 142.114L68.3513 141.715C66.9963 141.159 64.5549 141.43 62.7724 142.335C60.8283 143.321 58.8253 145.042 53.7582 150.079C49.2188 154.592 47.7769 155.574 45.3496 155.808C43.5234 155.984 42.2401 155.705 41.0054 154.866C40.4365 154.48 39.9057 154.164 39.8258 154.164C39.4259 154.164 40.8811 156.09 42.1907 157.294C44.244 159.181 45.4445 159.568 48.9344 159.463C51.3398 159.39 52.1262 159.238 54.0987 158.46ZM65.6756 126.017C51.9453 125.314 39.9235 123.178 34.6051 120.495C31.4032 118.881 31.6469 119.865 31.4839 107.896L31.342 97.4842L28.6464 97.1315C23.0262 96.3961 16.83 93.9426 12.7299 90.8292C6.59118 86.1677 1.8758 78.478 0.390834 70.707C-0.148893 67.8825 -0.125944 62.3588 0.436918 59.6149C1.72571 53.3322 4.55355 48.0731 9.0309 43.6319C11.2654 41.4155 15.7319 38.2478 16.6226 38.2478C16.8113 38.2478 17.1039 37.6021 17.2729 36.813C18.1231 32.8437 20.6855 28.1034 23.5624 25.1778C30.325 18.3007 41.7289 15.8008 51.1374 19.133C52.4851 19.6103 52.4906 19.6097 52.9603 18.9383C54.1588 17.2251 57.3583 13.8202 59.6972 11.769C66.0479 6.19942 73.4448 2.44357 81.5236 0.686409C85.7109 -0.224329 94.1742 -0.221383 98.3774 0.692262C110.277 3.27882 120.165 9.77197 127.277 19.6696C129.626 22.9386 132.528 28.7215 133.887 32.839L134.961 36.0955L136.895 37.2427C140.837 39.58 145.259 44.5238 147.251 48.8215C150.047 54.8544 150.788 62.6419 149.114 68.4184C148.161 71.7103 147.452 73.2565 145.67 75.9389C141.101 82.8146 132.996 87.975 124.766 89.2483L123.702 89.4129V103.654V117.895L122.453 119.094C117.221 124.113 90.9804 127.313 65.6756 126.017ZM89.7943 118.343C94.5722 118.049 101.869 117.351 104.266 116.96C105.669 116.73 105.672 116.728 104.549 116.704C103.925 116.691 102.074 116.803 100.435 116.952C98.7962 117.102 94.0282 117.352 89.8392 117.509C75.1441 118.06 59.3585 117.003 46.5226 114.609C40.4467 113.475 40.0139 113.43 39.0032 113.828L38.152 114.163L38.8613 114.436C40.1521 114.932 46.8867 116.335 50.7788 116.92C62.8245 118.728 75.8399 119.202 89.7943 118.343ZM37.8682 112.658C42.9435 110.905 51.1216 109.521 61.5613 108.648C67.2799 108.17 87.7421 108.176 93.483 108.658C106.397 109.742 114.63 111.346 120.652 113.951C121.112 114.149 121.149 113.867 121.149 110.165V106.164L120.368 105.764C119.939 105.543 118.345 104.966 116.826 104.48C108.604 101.853 95.6814 100.466 79.4375 100.469C64.1822 100.472 52.2974 101.527 44.2745 103.59C41.7794 104.232 37.0493 105.823 35.1017 106.676L33.7538 107.266V110.716C33.7538 113.893 33.793 114.148 34.2504 113.951C34.5235 113.832 36.1515 113.251 37.8682 112.658ZM121.149 88.9373C121.149 80.5644 121.053 73.7589 120.936 73.814C120.819 73.8691 119.127 74.6934 117.176 75.6458C111.753 78.2934 107.619 79.7218 101.854 80.9396C99.2661 81.4861 98.0159 81.5681 92.348 81.5624C86.6809 81.5568 85.4428 81.4731 82.9424 80.9264C77.2781 79.6879 71.1197 77.1267 66.5917 74.1265C65.4636 73.379 64.4511 72.7267 64.3417 72.677C64.2323 72.6274 63.2855 73.3148 62.2378 74.2048C61.1901 75.0947 59.568 76.3178 58.6331 76.9228L56.9333 78.0229L60.1695 78.0512C63.6797 78.0819 66.1734 78.5118 63.1369 78.5628C62.2088 78.5783 59.9743 78.7288 58.1713 78.8971C55.5258 79.1441 54.4546 79.3885 52.6207 80.1636C49.1125 81.6461 46.0429 82.2956 41.4151 82.5347C38.0367 82.7093 36.9962 82.8711 35.5982 83.4392C33.9654 84.1029 33.892 84.1763 33.8055 85.2334C33.7004 86.5167 33.1293 86.5386 38.8613 85.0399C47.1589 82.8704 54.3025 82.1213 64.115 82.3916C74.271 82.6714 74.9916 82.9875 65.9594 83.2006C57.9756 83.389 53.6606 83.7994 47.3114 84.9744C43.3505 85.7074 38.0879 87.0108 35.4563 87.9105L33.8957 88.4441L33.8077 89.8049C33.7291 91.0203 33.7746 91.1441 34.2334 90.9638C37.4283 89.7076 46.3262 87.8481 52.9069 87.0613C57.7834 86.4783 75.7784 86.5708 81.7074 87.2093C89.4124 88.0391 89.9361 88.2133 84.1193 88.0116C63.6336 87.301 49.1647 88.5154 38.5776 91.8338C33.7612 93.3435 33.7538 93.3486 33.7538 95.2187C33.7538 96.2763 33.8673 96.7723 34.1085 96.7687C34.3036 96.7659 35.8655 96.3154 37.5793 95.7676C47.0696 92.7346 58.3508 91.4692 73.3368 91.7568C82.0545 91.9241 84.5697 92.0829 92.4497 92.9635C97.3073 93.5064 105.627 94.8266 102.989 94.6358C101.974 94.5625 98.399 94.2862 95.0437 94.0217C87.2567 93.4081 65.0258 93.3166 59.4331 93.8752C49.0365 94.9136 41.4091 96.4242 35.9529 98.5254L33.7538 99.3722V101.087C33.7538 102.604 33.8108 102.779 34.2504 102.606C35.9036 101.956 42.1595 100.318 45.6713 99.6152C59.4646 96.8562 77.4791 96.2997 95.8949 98.0638C106.214 99.0523 116.504 101.417 119.872 103.574C120.34 103.874 120.819 104.129 120.936 104.14C121.053 104.151 121.149 97.3102 121.149 88.9373ZM105.188 94.8812C105.383 94.8023 105.702 94.8023 105.897 94.8812C106.092 94.96 105.933 95.0245 105.542 95.0245C105.152 95.0245 104.993 94.96 105.188 94.8812ZM90.0125 88.338C90.2886 88.2659 90.6716 88.2707 90.8638 88.3485C91.0559 88.4263 90.83 88.4853 90.3618 88.4795C89.8936 88.4737 89.7364 88.41 90.0125 88.338V88.338ZM25.199 89.0753C25.6905 88.9037 26.0926 88.6684 26.0926 88.5523C26.0926 88.4361 25.4019 88.1864 24.5578 87.9972C22.5918 87.5567 18.7868 85.7148 16.594 84.1421C14.6407 82.7412 11.5704 79.6207 10.2936 77.7387C8.87866 75.6532 7.41952 72.5299 6.61544 69.8656C5.9585 67.6889 5.85821 66.8406 5.83322 63.2492C5.8091 59.7819 5.91115 58.7116 6.47783 56.4892C7.18885 53.7007 7.62608 52.9945 7.02346 55.6079C6.43885 58.1432 6.59185 64.0993 7.31826 67.0847C8.14176 70.4691 10.5622 75.3066 12.7479 77.9365C16.2486 82.1487 21.1108 85.3064 26.0242 86.5586C27.786 87.0076 28.1358 86.8009 28.1866 85.2804C28.2203 84.2722 28.1968 84.2504 26.3764 83.6027C19.5287 81.1661 14.1685 76.2524 11.6274 70.0824C10.6505 67.7105 9.97802 65.0502 9.79223 62.8231C9.65742 61.2071 9.66408 61.1839 9.92033 62.3774C11.2931 68.7711 14.9701 74.6847 19.8039 78.2726C21.5588 79.5753 25.5755 81.688 27.1567 82.1402C28.398 82.4952 27.7855 81.6131 24.3142 78.0473C22.3997 76.0806 20.5163 74.1051 20.1289 73.6574L19.4245 72.8433L20.5595 73.6139C22.6058 75.0031 26.598 76.8705 29.1354 77.6253C32.1524 78.5227 37.5404 78.8616 40.3451 78.3303C46.157 77.2293 51.3205 74.4173 56.4545 69.5573L58.4662 67.6529L57.3688 66.3948L56.2713 65.1366L53.9886 67.4222C46.2119 75.2087 34.4314 77.3213 24.8157 72.6535C21.6338 71.1089 20.9362 70.4532 23.7653 71.6662C27.4351 73.2397 30.9004 73.8476 35.1726 73.6674C42.3734 73.3638 47.9472 70.897 52.858 65.8403L55.0791 63.5533L54.2882 62.4779C53.8533 61.8865 53.4466 61.3386 53.3845 61.2605C53.3225 61.1824 52.615 61.8365 51.8124 62.714C48.748 66.0647 45.2631 68.3285 41.1313 69.6524C39.1375 70.2913 38.0556 70.4463 34.8888 70.5466C32.782 70.6134 30.4836 70.5524 29.7814 70.4111C28.6821 70.1899 28.9189 70.151 31.4839 70.1315C36.1375 70.0961 40.5762 68.9674 44.1793 66.9033C46.5608 65.5391 49.6559 62.9515 51.0044 61.1975L52.2231 59.6122L50.366 55.7995C49.3445 53.7025 48.5088 51.8706 48.5088 51.7287C48.5088 51.5868 49.1021 52.4908 49.8272 53.7376C56.6981 65.5519 67.783 73.6503 81.1993 76.6573C83.7414 77.2271 84.8722 77.3104 89.9362 77.3008C94.8878 77.2915 96.1962 77.1941 98.7324 76.6459C108.36 74.565 115.866 70.5523 122.438 63.972C126.774 59.6304 130.456 54.226 132.081 49.8188C132.905 47.5826 132.836 48.4691 131.937 51.6764C130.8 55.7306 129.287 59.1495 127.193 62.3969C124.984 65.8223 124.434 67.4662 124.62 70.0826C124.767 72.1347 125.679 74.419 126.579 74.9872C127.216 75.3895 130.241 73.2065 132.414 70.7758C136.461 66.2505 138.276 61.5012 138.301 55.3725C138.319 50.9835 138.724 52.0199 138.941 57.0094C139.073 60.0459 139.007 60.9234 138.493 62.9586C137.179 68.1618 133.775 72.9679 129.473 75.6936C128.808 76.1153 128.258 76.5325 128.253 76.6207C128.237 76.8643 130.18 77.7387 130.737 77.7387C131.545 77.7387 135.08 74.8511 136.848 72.747C140.294 68.6473 142.191 63.3844 142.216 57.8512C142.236 53.4275 141.022 48.8999 138.98 45.7892C138.46 44.9965 138.487 45.0073 139.302 45.9187C140.547 47.3101 142.323 51.0371 143.025 53.7316C143.463 55.4141 143.615 56.8533 143.609 59.2717C143.599 63.1514 142.971 65.9406 141.337 69.3576C140.2 71.7365 137.296 75.6139 136.028 76.4458C134.568 77.4034 135.655 77.2394 137.816 76.1762C141.801 74.215 144.904 70.312 146.285 65.5221C147.064 62.8229 147.01 56.0103 146.186 52.9948C143.95 44.8062 138.245 38.6326 130.612 36.1412C129.275 35.7046 129.135 35.5759 128.957 34.6122C128.359 31.3882 125.201 24.524 122.46 20.4913C117.008 12.4677 107.18 6.40624 95.4393 3.82594C91.5881 2.97951 83.3296 2.91147 79.7212 3.69643C71.982 5.37999 64.8464 9.39814 58.6433 15.5657L57.0023 17.1973L58.4357 18.9785C60.3813 21.396 61.86 23.9699 63.0586 27.0255C64.0122 29.4566 64.5805 31.4292 64.3272 31.4292C64.2631 31.4292 63.8036 30.8003 63.3062 30.0317C60.9937 26.4584 55.8731 22.8806 51.0516 21.4691C47.7629 20.5064 40.8681 20.3725 36.8821 21.1939C31.5543 22.2917 27.6249 24.4173 24.3244 27.9868C21.4124 31.1361 19.2538 35.7504 18.4151 40.6184C17.9622 43.2472 18.2092 50.6993 18.8115 52.582C19.0592 53.356 19.2153 54.0358 19.1584 54.0928C19.1015 54.1497 18.4771 53.3854 17.7708 52.3943C16.1761 50.1568 14.4407 46.6011 13.7291 44.1133C13.4321 43.0749 13.1097 42.2253 13.0127 42.2253C12.5508 42.2253 10.0497 44.7577 8.57104 46.7224C2.53832 54.7386 1.00567 64.2852 4.29166 73.378C6.26037 78.8257 11.5147 84.7544 16.7289 87.4117C19.9786 89.0678 23.3329 89.7266 25.199 89.0753ZM83.3158 73.6C70.0824 71.5388 58.1487 62.9212 52.2538 51.1694C51.1662 49.001 49.6382 45.4343 49.6488 45.0884C49.6516 44.9981 50.3858 46.302 51.2804 47.9859C53.6497 52.4457 56.1799 55.8747 59.7155 59.4178C64.6318 64.3444 69.9609 67.6184 76.5941 69.7874C81.6559 71.4425 84.8379 71.8693 90.7675 71.6885C97.6715 71.478 101.983 70.4326 107.984 67.5147C112.692 65.2254 115.785 62.9769 119.883 58.865C124.484 54.2484 127.68 49.6277 129.67 44.7147C130.751 42.0449 130.628 43.0755 129.504 46.1007C125.511 56.8491 118.244 64.9396 108.238 69.7769C100.623 73.4582 91.445 74.8661 83.3158 73.6ZM83.9774 68.2448C77.8089 67.2732 72.6395 65.2704 67.52 61.8687C64.5531 59.8974 59.625 55.0299 57.6993 52.169C56.2861 50.0695 53.955 45.9666 54.9495 47.3292C55.2307 47.7144 56.0289 48.8011 56.7235 49.7441C57.418 50.6872 59.461 52.9343 61.2635 54.7377C67.2842 60.7616 73.5771 64.2644 81.4895 65.996C84.8157 66.724 93.3468 66.727 96.7462 66.0015C104.962 64.2479 112.507 60.2624 118.859 54.3206L120.4 52.8793L119.246 54.3008C113.736 61.0876 105.56 66.0448 96.9543 67.8154C93.2787 68.5716 87.3071 68.7692 83.9774 68.2448V68.2448ZM21.0127 44.6402C20.9813 42.3733 21.8814 38.7295 23.0999 36.19C27.1604 27.7281 36.314 22.6431 45.4872 23.7534C50.2904 24.3347 54.8798 26.441 58.2981 29.6327C59.0785 30.3613 59.3977 30.7409 59.0075 30.4763C55.9411 28.3964 54.9455 27.8105 53.2974 27.1159C50.1763 25.8004 47.8696 25.3647 44.1107 25.3809C41.5783 25.3918 40.1328 25.5492 38.4703 25.9951C29.6804 28.3528 23.0549 35.4818 21.4059 44.3561L21.0364 46.3448L21.0127 44.6402H21.0127ZM24.9576 42.1126C24.9576 41.5908 27.0471 37.8825 28.2253 36.3131C33.7867 28.9055 44.5863 26.4294 53.1907 30.5891C54.4392 31.1927 55.8437 32.0117 56.3119 32.4091L57.1632 33.1317L55.849 32.417C53.7318 31.2657 50.5538 30.3041 47.7091 29.954C39.4582 28.9388 31.1061 32.9433 26.3354 40.202C25.5776 41.3549 24.9576 42.2147 24.9576 42.1126ZM124.044 34.8812C123.55 34.741 123.23 34.2306 122.719 32.7663C122.349 31.7048 121.394 29.6592 120.598 28.2206C114.927 17.9766 105.632 11.1879 93.7963 8.64717C91.5042 8.15512 89.962 8.03031 86.1056 8.02478C79.7702 8.01569 75.2506 8.86102 69.855 11.0642C67.0284 12.2184 68.0623 11.4684 71.2717 10.0364C74.7319 8.49259 78.2851 7.42445 81.9878 6.81499C85.5754 6.22448 92.7199 6.44039 96.2154 7.24494C107.828 9.91783 117.28 17.0013 122.799 27.1676C123.899 29.1926 125.972 34.1986 125.972 34.8278C125.972 35.1488 125.075 35.1737 124.044 34.8812ZM117.223 32.4251C113.984 26.0755 108.607 20.4207 102.458 16.898C96.827 13.6723 89.9151 11.8688 82.8928 11.7931C80.5091 11.7674 80.1051 11.7103 80.9981 11.5253C82.8927 11.133 89.3379 11.2318 92.2062 11.6972C103.722 13.5658 114.249 21.2868 119.431 31.6659C121.04 34.8887 121.037 34.8387 119.652 34.8372L118.453 34.8358L117.223 32.425V32.4251Z" fill="#91908B"/>
</svg>
