<svg width="300" height="286" viewBox="0 0 300 286" fill="none" xmlns="http://www.w3.org/2000/svg">
<path d="M96.5318 285.024C89.3556 282.995 77.2333 275.153 70.414 268.127L67.4848 265.109L70.0885 266.207C73.6341 267.701 85.7229 268.155 95.5328 267.162C141.562 262.5 206.966 240.367 215.496 226.565C216.253 225.34 218.002 223.591 219.382 222.678C224.056 219.585 230.073 213.462 239.368 202.341C263.766 173.151 277.283 163.875 291.094 166.844C295.729 167.841 299.144 169.526 299.418 170.953C299.593 171.861 299.177 172.09 297.35 172.09C294.429 172.09 286.759 174.812 281.316 177.78C271.187 183.304 259.416 192.83 244.609 207.486C233.345 218.635 227.813 223.2 219.307 228.364C216.536 230.046 214.27 231.852 214.27 232.377C214.27 233.484 217.419 231.827 225.336 226.558C232.721 221.642 235.7 219.067 248.444 206.582C266.907 188.494 278.447 180.014 289.54 176.384C293.581 175.061 299.542 174.059 299.542 174.702C299.542 175.919 295.626 178.776 288.334 182.88C273.19 191.401 265.115 197.34 246.816 213.412C236.836 222.178 227.422 228.823 218.538 233.372L213.155 236.128L210.309 242.333C206.287 251.103 202.117 257.199 197.949 260.405C186.122 269.505 154.804 280.381 128.998 284.352C118.901 285.906 100.964 286.277 96.5318 285.024ZM286.402 171.091C290.128 169.873 290.641 169.077 288.111 168.442C285.395 167.76 281.437 168.597 276.964 170.799C272.389 173.051 271.342 174.407 273.154 175.732C274.15 176.46 274.939 176.268 278.671 174.389C281.066 173.183 284.545 171.699 286.402 171.091ZM74.4374 264.492C66.5791 263.079 66.4104 261.158 73.6454 255.472C81.8617 249.016 107.343 238.353 127.635 232.881C133.65 231.258 137.653 229.442 132.883 230.499C131.641 230.774 126.524 230.993 121.512 230.985C111.562 230.97 106.798 230.065 100.357 226.965C92.5308 223.198 84.49 212.09 83.642 203.873L83.267 200.24L76.3523 199.921C68.3565 199.552 63.7966 198.225 55.4425 193.835C45.1373 188.42 39.4035 185.804 35.5371 184.753C29.7891 183.191 21.3796 182.844 16.5826 183.971C13.0791 184.794 12.5003 184.796 12.1888 183.984C11.439 182.03 11.8821 179.36 13.2434 177.629C14.694 175.785 20.3751 172.759 22.4077 172.747C23.0343 172.744 23.5469 172.448 23.5469 172.09C23.5469 171.697 20.8347 171.439 16.7121 171.439C8.9811 171.439 8.88146 171.35 10.9089 166.283C12.545 162.194 14.3747 161.35 21.5941 161.35C24.9952 161.35 29.2425 161.563 31.0326 161.824L34.2872 162.299L31.3581 159.732C29.747 158.32 25.8814 155.323 22.7679 153.073C19.6543 150.823 17.0913 148.671 17.0722 148.29C17.0531 147.909 17.9355 146.738 19.0331 145.686C22.9377 141.945 28.2772 143.468 37.878 151.06L43.093 155.183L42.686 152.638C42.462 151.237 42.604 149.11 43.0014 147.909C43.721 145.736 43.743 145.727 48.2251 145.577C50.8529 145.49 54.0981 144.886 56.0224 144.128C59.7918 142.642 59.8795 142.704 61.2528 147.819C62.1525 151.17 61.097 154.257 58.374 156.241L56.5883 157.542L60.6095 160.565C65.2368 164.043 68.6001 165.243 70.6696 164.154C74.1155 162.342 73.7916 161.024 68.7259 156.249C65.2928 153.012 64.3429 151.685 63.9784 149.616C63.3174 145.864 64.1205 142.286 66.0588 140.348L67.7494 138.657L70.8717 141.569C72.589 143.17 76.492 145.986 79.545 147.826C85.9759 151.703 90.0009 155.513 91.8732 159.496C93.7217 163.429 93.4766 165.258 91.587 161.631C89.279 157.202 85.5412 154.241 77.2342 150.263C73.125 148.295 69.763 146.396 69.763 146.043C69.763 144.811 68.664 145.415 67.9147 147.06C66.5299 150.099 67.0596 151.251 72.4102 156.838C78.4663 163.162 78.8694 164.775 75.037 167.35C70.7884 170.203 65.2401 168.736 59.2607 163.177C55.9905 160.136 52.1879 155.465 52.1879 154.488C52.1879 154.222 52.9934 153.804 53.9779 153.558C56.6399 152.894 58.0463 151.315 58.0463 148.989C58.0463 147.852 57.9014 146.776 57.7243 146.599C57.5472 146.422 55.4236 146.951 53.005 147.775C50.5865 148.599 47.966 149.281 47.1816 149.291C46.3972 149.3 45.5718 149.604 45.3473 149.968C44.5597 151.242 46.4218 157.702 48.3402 160.35L50.2784 163.025L47.7918 161.757C46.4241 161.059 42.88 158.296 39.916 155.617C31.7034 148.192 25.0264 145.113 22.8437 147.743C22.1132 148.623 22.1653 148.885 23.1838 149.455C23.8453 149.826 26.7907 152.36 29.7291 155.088C32.6675 157.816 37.8244 161.925 41.1888 164.221C44.5532 166.516 46.8189 168.219 46.2238 168.006C41.34 166.256 30.8946 164.638 24.3762 164.622C17.2815 164.605 17.0174 164.656 15.2977 166.375C14.3235 167.348 13.7058 168.324 13.9251 168.543C14.1443 168.763 17.6497 169.329 21.7149 169.801C27.9854 170.53 43.7258 173.773 43.7258 174.336C43.7258 174.435 39.6981 174.375 34.7754 174.202C24.5322 173.843 21.0398 174.497 18.2366 177.3C17.2191 178.318 16.3867 179.392 16.3867 179.688C16.3868 179.984 19.6821 180.241 23.7097 180.26C32.7101 180.3 36.6541 181.403 50.886 187.858C65.4535 194.464 68.8739 195.525 75.5727 195.515C83.3793 195.502 83.816 195.321 84.7213 191.726C85.1405 190.061 86.6385 186.479 88.0502 183.765C93.126 174.009 103.096 166.704 106.212 170.458C107.441 171.94 106.759 179.032 105.047 182.56C103.095 186.585 97.2821 192.309 91.4682 195.933C85.9703 199.36 85.9313 199.487 88.3121 206.235C92.0187 216.74 100.15 224.343 111.748 228.149C115.865 229.5 117.387 229.633 127.518 229.525C135.785 229.436 140.316 229.07 144.767 228.13C148.087 227.429 154.319 226.11 158.615 225.199C179.321 220.808 201.854 219.017 209.266 221.172C211.336 221.774 213.194 222.695 213.396 223.22C214.364 225.744 209.054 230.148 198.648 235.453C192.587 238.543 191.076 239.029 185.303 239.748C160.473 242.839 123.834 252.74 99.8174 262.848C96.4425 264.268 94.6375 264.542 86.8971 264.807C81.9485 264.976 76.3417 264.834 74.4374 264.492V264.492ZM90.9149 259.551C94.2176 258.284 92.9512 252.805 89.3557 252.805C86.1961 252.805 84.7941 255.784 86.7709 258.297C88.1151 260.006 89.0184 260.279 90.9149 259.551ZM119.11 252.477C119.22 252.376 118.833 250.652 118.25 248.644L117.189 244.994H113.98C112.216 244.994 110.568 244.921 110.32 244.832C109.81 244.648 110.042 252.151 110.573 253.011C110.866 253.484 118.526 253.005 119.11 252.477V252.477ZM129.041 243.019C130.448 242.265 130.714 239.811 129.519 238.615C128.308 237.405 125.865 237.692 125.092 239.136C124.131 240.933 125.311 243.075 127.576 243.641C127.689 243.669 128.348 243.389 129.041 243.019V243.019ZM91.3597 191.544C95.6225 188.808 99.4897 184.323 101.801 179.434C103.77 175.27 103.749 174.043 101.71 174.043C97.8559 174.043 87.3723 187.463 87.3445 192.432C87.336 193.972 87.701 193.891 91.3597 191.544ZM104.968 262.963C105.696 262.271 123.025 256.355 131.79 253.806C149.056 248.784 170.323 243.925 180.096 242.769L183.351 242.384L180.096 243.713C164.579 250.049 136.528 257.746 114.711 261.653C105.83 263.243 104.482 263.424 104.968 262.963V262.963ZM18.5686 256.369C17.5661 253.757 24.8808 246.688 30.6532 244.692C32.2345 244.145 34.0653 243.211 34.7215 242.618C35.8537 241.593 35.9146 241.64 35.9146 243.538C35.9146 244.639 36.1202 246.075 36.3715 246.729C36.8133 247.881 36.769 247.881 35.0276 246.74C30.6857 243.895 22.2188 249.077 20.5979 255.572C20.1062 257.542 19.1611 257.913 18.5686 256.369V256.369ZM49.8737 253.493C45.6625 252.835 41.2147 250.834 39.2786 248.727C37.2901 246.563 36.6963 242.305 38.0869 240.183C39.6511 237.795 41.9926 237.657 50.5605 239.446C67.6865 243.021 80.8319 242.066 92.0574 236.429C93.4 235.755 94.4984 235.383 94.4984 235.602C94.4984 236.153 89.1912 240.851 85.1541 243.874C80.8664 247.084 72.4181 251.231 67.7763 252.404C63.0668 253.595 54.0356 254.144 49.8737 253.493V253.493ZM69.0866 245.255C72.4209 244.682 76.2072 243.804 77.5007 243.305C79.8382 242.401 79.8307 242.399 76.2723 242.881C70.1361 243.714 57.4253 243.343 51.9233 242.171C49.0927 241.569 46.6607 241.191 46.5189 241.333C46.1084 241.744 50.3414 244.119 52.8388 244.879C58.1435 246.494 61.4299 246.57 69.0866 245.255V245.255ZM2.44951 243.556C3.54481 242.378 5.98227 239.437 7.86612 237.02C9.74995 234.604 11.5004 232.627 11.756 232.627C12.0116 232.627 12.5722 232.978 13.0018 233.408C13.4357 233.842 13.7829 233.9 13.7829 233.538C13.7829 233.18 13.4504 232.554 13.0439 232.148C12.4925 231.597 12.8168 230.763 14.3212 228.863C17.92 224.319 18.0152 224.3 20.9943 227.5L23.6451 230.348L21.5558 226.536L19.4665 222.724L23.7939 218.4L28.1213 214.075L30.7934 217.198C32.263 218.916 33.594 220.193 33.7512 220.035C33.9084 219.878 33.1072 218.239 31.9707 216.392C30.8342 214.545 30.0881 212.85 30.3126 212.625C30.5371 212.401 32.2029 212.196 34.0144 212.17C37.0711 212.126 37.4921 212.319 39.866 214.863C41.8353 216.974 42.4239 218.13 42.4239 219.888C42.4239 221.723 42.2174 222.092 41.3718 221.767C40.4636 221.419 40.4273 221.565 41.1065 222.834C41.8039 224.137 41.6498 224.555 39.7507 226.514L37.6081 228.725L35.4595 226.643C32.9665 224.226 32.7752 224.484 34.6735 227.701L36.0361 230.011L30.6404 232.62L25.2446 235.23L23.4194 233.481C21.3789 231.526 21.0591 231.856 22.6463 234.278C23.6839 235.862 23.6635 235.899 21.1817 236.925C19.7975 237.497 16.6145 238.847 14.1084 239.925C11.6023 241.002 7.50575 242.742 5.00496 243.791L0.458069 245.698L2.44951 243.556ZM18.3213 230.326C16.9599 228.686 16.2995 229.285 17.4811 231.088C18.0996 232.032 18.7199 232.462 18.8595 232.043C18.9992 231.624 18.757 230.851 18.3213 230.326ZM30.0276 224.057C29.039 222.143 26.7526 219.608 26.0142 219.608C25.2179 219.608 26.6634 222.218 28.6237 224.32C30.54 226.375 31.164 226.258 30.0276 224.057ZM63.3334 232.296C55.7604 225.454 56.6128 212.722 65.0221 207.074C68.651 204.637 73.6736 203.747 77.8496 204.803C81.3518 205.688 81.9331 206.372 80.6621 208.11C79.8856 209.172 79.6542 209.18 77.37 208.225C76.0188 207.661 74.6331 207.372 74.2909 207.583C73.9486 207.795 73.6686 209.551 73.6686 211.487C73.6686 214.361 73.9116 215.136 74.9948 215.715C76.2975 216.413 76.2837 216.493 74.2195 220.248C72.4946 223.385 71.8195 224.067 70.4523 224.05C68.2595 224.024 63.9046 225.925 63.9046 226.909C63.9046 227.334 64.8124 228.619 65.922 229.764C67.4085 231.298 67.8251 232.205 67.5055 233.212C66.9109 235.086 66.2645 234.944 63.3334 232.296V232.296ZM67.8011 221.561C68.4688 221.561 69.5256 220.429 70.3839 218.794L71.8366 216.028L70.0764 212.906C69.1083 211.189 67.9827 209.894 67.575 210.028C66.1756 210.488 62.6556 215.735 62.2323 217.992C61.5924 221.403 62.2283 222.449 64.647 221.966C65.7602 221.743 67.1796 221.561 67.8011 221.561ZM47.7396 229.635C44.4614 227.339 47.6399 221.797 51.1703 223.653C53.8339 225.054 54.2375 227.322 52.1879 229.372C50.6144 230.945 49.6888 231 47.7396 229.635V229.635ZM122.058 218.958C119.21 217.81 119.373 213.508 122.307 212.393C126.131 210.939 128.949 216.248 125.598 218.595C123.968 219.737 123.985 219.735 122.058 218.958ZM173.967 215.865C172.509 214.165 171.315 212.581 171.313 212.346C171.31 212.11 172.803 210.667 174.629 209.138L177.949 206.358L180.17 208.915C183.99 213.313 183.989 213.282 180.446 216.27C178.693 217.748 177.114 218.957 176.938 218.957C176.762 218.957 175.425 217.566 173.967 215.865V215.865ZM41.9843 214.462L39.9542 212.044L42.8253 210.228C44.4044 209.229 46.1086 207.823 46.6124 207.103C47.1162 206.384 47.8518 205.903 48.2469 206.035C48.6496 206.169 48.1117 207.273 47.0229 208.547C45.9546 209.798 45.0686 211.04 45.0541 211.307C45.0062 212.189 51.1935 207.385 53.6951 204.598C55.043 203.097 56.3223 202.045 56.5378 202.26C57.1181 202.84 51.0482 209.717 47.9966 211.937L45.3531 213.859L47.7941 213.406C51.0819 212.797 50.8663 213.408 47.1247 215.304L44.0143 216.88L41.9843 214.462ZM144.62 214.992C139.841 214.065 132.488 210.051 128.793 206.352C115.892 193.436 116.155 172.471 129.393 158.461L133.367 154.254L130.601 150.213C126.637 144.424 124.958 139.608 124.609 133.034C124.366 128.437 124.559 126.858 125.751 123.696C128.459 116.512 138.105 107.999 149.627 102.623C154.57 100.317 154.656 100.238 152.757 99.7397C149.163 98.7976 133.174 95.9392 129.136 95.5172C120.117 94.5745 110.105 98.4879 99.7059 107.02C97.042 109.206 96.3345 109.453 91.8947 109.746C87.8758 110.012 85.4051 110.732 77.9192 113.815C64.3634 119.399 60.4098 119.389 55.4672 113.76C53.5179 111.54 53.3693 111.061 53.6353 107.854C53.8609 105.134 54.3363 103.935 55.7917 102.415C58.0716 100.036 61.8647 98.927 65.7386 99.508C68.3827 99.9045 68.5966 99.837 68.1382 98.7508C66.0692 93.8482 65.74 92.095 66.0606 87.6857C66.2471 85.1199 66.2525 82.8733 66.0724 82.6933C65.8924 82.5133 63.655 83.3677 61.1004 84.5919C57.5842 86.277 55.6022 86.8178 52.9433 86.8178C49.7312 86.8178 49.2149 86.6018 46.9038 84.2907C44.6367 82.0236 44.3767 81.426 44.3767 78.4823C44.3767 75.8921 44.7358 74.7742 46.0816 73.1749C49.452 69.1693 54.414 68.0597 57.633 70.5918C59.0011 71.668 59.3461 72.4911 59.3381 74.6601C59.333 76.1557 59.0442 77.8187 58.6972 78.3558C58.2074 79.1136 58.064 78.9219 58.0562 77.4993C58.0271 72.1365 53.8078 70.1263 50.185 73.7492C47.9183 76.0158 47.7318 78.4213 49.5869 81.4639C51.99 85.4054 55.4694 85.5643 62.2005 82.0402L66.0293 80.0355L65.6394 74.9786C65.2479 69.9022 63.5778 62.1975 62.6635 61.2497C62.3943 60.9708 61.3186 61.1889 60.2729 61.7344C53.5916 65.2204 45.617 62.4077 41.2841 55.037C39.7083 52.3563 39.4958 51.3326 39.5038 46.4601C39.5116 41.7366 39.7655 40.451 41.2391 37.6725C45.6113 29.4286 54.7755 23.9313 65.111 23.3525L69.8975 23.0844L72.7846 18.0108C77.8958 9.02836 84.6623 3.3858 92.8939 1.24176C106.723 -2.36038 119.868 3.7843 125.94 16.6892C127.478 19.9593 128.263 20.9862 128.993 20.6802C129.532 20.4536 132.071 20.1198 134.633 19.9383C141.862 19.4264 147.654 21.4185 152.224 25.9893C156.972 30.7366 159.135 35.5772 159.192 41.5781C159.243 47.0151 157.846 50.1532 153.708 53.8907C150.31 56.9612 147.458 58.1769 143.652 58.1769C140.132 58.1769 140.089 57.3396 144.269 70.2771L147.022 78.7972L143.38 77.0513C121.1 66.3704 97.4555 65.3008 79.2015 74.1481C75.9794 75.7098 72.5429 77.6616 71.5649 78.4853C69.8156 79.9587 69.7838 80.1209 69.6121 88.4452C69.4531 96.1531 69.5681 97.1556 70.9021 99.6938C72.7283 103.168 72.7262 103.196 70.697 102.424C68.1914 101.471 61.4866 101.66 59.3947 102.742C56.4083 104.286 55.8293 107.611 58.0542 110.439C60.9033 114.061 66.1907 113.178 76.2898 107.392C79.7006 105.438 83.2888 103.64 84.2637 103.395C85.2387 103.15 86.0363 102.858 86.0363 102.745C86.0363 102.633 85.1576 101.662 84.0835 100.588C81.767 98.271 81.6993 97.4854 83.4887 93.6787C84.9142 90.646 87.443 87.809 86.4131 90.398C84.723 94.6461 84.6113 96.106 85.8457 97.8153C86.5192 98.748 88.7183 100.316 90.7325 101.301L94.3948 103.091L98.1895 99.3023C105.491 92.0126 114.796 89.1584 126.549 90.6028C132.272 91.3061 135.793 92.1133 151.095 96.2295C154.477 97.1393 158.3 97.8837 159.591 97.8837C162.163 97.8837 170.69 93.7577 180.62 87.708C183.823 85.7569 186.552 84.2694 186.685 84.4024C186.818 84.5355 186.466 85.9959 185.904 87.6478C184.669 91.2722 180.486 96.1943 177.25 97.8307C174.331 99.3072 168.933 100.487 165.1 100.487C161.998 100.487 154.198 103.41 146.248 107.551C140.345 110.625 133.75 117.097 131.223 122.294C129.554 125.725 129.323 126.911 129.323 132.058C129.323 137.291 129.541 138.367 131.366 142.147C132.49 144.474 134.302 147.403 135.394 148.656L137.379 150.935L139.86 149.44C144.746 146.498 152.83 142.885 156.988 141.784C168.945 138.621 182.771 141.719 189.559 149.084C191.954 151.682 192.138 152.156 192.138 155.706C192.138 160.09 190.618 162.952 186.992 165.396C183.592 167.686 180.716 168.326 172.285 168.668C159.867 169.17 149.773 166.63 141.692 160.97C139.625 159.522 137.722 158.575 137.463 158.867C128.562 168.875 124.719 178.091 125.211 188.247C125.446 193.099 125.789 194.466 127.644 197.939C131.922 205.949 141.148 212.517 151.176 214.691L155.361 215.599L151.455 215.579C149.307 215.569 146.231 215.304 144.62 214.992H144.62ZM180.403 163.993C186.277 161.854 188.279 158.557 186.351 154.199C184.057 149.012 176.769 145.977 166.633 145.985C161.615 145.99 159.324 146.329 155.386 147.651C150.767 149.201 142.016 154.068 142.016 155.087C142.016 155.731 148.082 159.305 153.082 161.608C161.551 165.509 173.4 166.543 180.403 163.993ZM173.395 96.872C176.406 95.8459 181.723 91.8372 181.723 90.593C181.723 90.1391 181.436 90.1515 180.859 90.6303C180.384 91.0247 177.235 92.8125 173.862 94.6031C167.811 97.815 167.598 98.847 173.395 96.872V96.872ZM74.2658 74.4815C93.6006 63.1894 108.78 61.6498 132.194 68.6057C135.784 69.6721 138.845 70.5446 138.997 70.5446C139.15 70.5446 139.039 69.4461 138.751 68.1036C138.463 66.761 138.029 63.8573 137.787 61.6507C137.419 58.3091 137.019 57.3484 135.394 55.9C130.951 51.9415 130.662 46.7925 134.658 42.7965C137.389 40.065 137.728 40.3547 138.354 45.9597C138.583 48.0115 139.086 51.1604 139.471 52.9572C140.158 56.1619 140.217 56.2238 142.559 56.2098C148.225 56.1759 153.069 52.0402 154.45 46.0587C155.071 43.369 155.018 42.1775 154.145 39.1743C152.765 34.4271 148.363 29.4321 144.114 27.7927C140.18 26.2747 132.052 26.301 126.786 27.8488C122.656 29.0629 121.869 28.7584 121.848 25.9374C121.827 23.2311 117.428 15.4244 113.981 11.9775C108.951 6.94695 103.389 4.475 97.1022 4.475C92.9595 4.475 91.5539 4.79061 87.8208 6.55893C79.9345 10.2946 73.7056 17.8268 71.7098 26.041L71.0564 28.73L65.0395 29.0102C55.4311 29.4576 49.7287 32.8709 46.2282 40.2703C42.6882 47.753 44.408 55.2041 50.3778 58.2497C53.4807 59.8327 58.1335 59.6705 59.8857 57.9182C60.8575 56.9464 60.8396 56.6754 59.6559 54.4551C58.9496 53.1302 57.2733 50.5776 55.9307 48.7825C54.5882 46.9874 53.4897 45.2912 53.4897 45.013C53.4897 44.1862 57.9226 44.4382 60.2131 45.3952C64.6852 47.2637 66.8179 51.6603 65.2512 55.7811C64.7937 56.9842 65.1011 58.7942 66.5032 63.1542C67.5252 66.3323 68.5682 70.76 68.8209 72.9933C69.0735 75.2266 69.411 77.0539 69.5708 77.0539C69.7306 77.0539 71.8434 75.8963 74.2658 74.4815V74.4815ZM136.487 49.1024C135.884 43.0974 134.205 43.0016 134.205 48.9722C134.205 51.225 135.892 54.7547 136.62 54.0265C136.801 53.8455 136.741 51.6297 136.487 49.1024V49.1024ZM62.6028 51.638C62.6028 50.0586 59.846 47.111 58.3689 47.111C57.6273 47.111 58.0302 47.9481 59.779 50.0402C61.1257 51.6513 62.312 52.9694 62.4152 52.9694C62.5184 52.9694 62.6028 52.3703 62.6028 51.638V51.638ZM102.623 212.878C99.8356 211.613 96.7012 207.8 96.1848 205.048C94.9059 198.231 99.9404 192.264 106.965 192.272C112.929 192.279 117.27 196.689 117.277 202.75C117.281 206.736 115.833 209.604 112.61 211.991C110.421 213.612 105.251 214.072 102.623 212.878ZM110.432 209.732C111.352 209.313 112.72 207.975 113.471 206.76C116.091 202.521 113.953 197.11 109.014 195.48C106.266 194.573 104.289 195.037 101.731 197.19C96.617 201.493 99.5963 210.495 106.135 210.495C107.577 210.495 109.511 210.152 110.432 209.732ZM189.86 206.972C185.013 204.818 183.042 199.405 185.34 194.562C187.041 190.977 189.708 189.533 194.035 189.854C197.092 190.081 197.846 190.427 199.711 192.462C202.192 195.17 202.866 197.234 202.282 200.344C201.209 206.063 195.122 209.311 189.86 206.972V206.972ZM196.6 204.36C202.475 201.322 200.109 192.269 193.44 192.269C191.319 192.269 190.326 192.679 188.833 194.172C187.341 195.664 186.931 196.658 186.931 198.778C186.931 203.924 191.899 206.791 196.6 204.36ZM141.159 205.862C140.133 205.265 140.649 204.761 145.065 202.05C147.863 200.331 152.439 198.116 155.233 197.128C158.026 196.139 161.206 194.495 162.299 193.474C164.706 191.226 164.799 191.214 164.799 193.165C164.799 195.223 163.851 195.91 158.498 197.731C153.964 199.273 149.828 201.167 149.828 201.702C149.828 201.859 151.365 201.428 153.245 200.743C155.125 200.058 158.287 199.052 160.273 198.507C164.682 197.298 167.096 195.021 166.509 192.628C166.284 191.714 165.924 190.161 165.707 189.177C165.324 187.433 165.339 187.421 166.318 188.742C170.053 193.778 167.408 197.64 158.613 199.99C157.18 200.373 153.279 202.015 149.944 203.638C143.452 206.798 142.976 206.918 141.159 205.862V205.862ZM136.321 202.052C133.094 199.03 134.961 195.282 142.301 190.044C144.578 188.419 147.497 185.652 148.787 183.894C150.916 180.993 154.33 178.599 156.337 178.599C158.128 178.599 161.669 180.857 162.549 182.56C163.693 184.771 163.775 188.344 162.735 190.627C161.772 192.74 159.143 194.326 153.609 196.134C151.214 196.916 147.449 198.724 145.242 200.15C140.141 203.447 138.242 203.852 136.321 202.052V202.052ZM24.3758 196.123C24.5731 193.947 24.8335 192.084 24.9544 191.983C25.0753 191.882 27.005 191.617 29.2425 191.393L33.3109 190.987V195.533V200.08H28.6639H24.017L24.3758 196.123ZM133.31 194.523C132.476 192.351 133.02 191.433 137.841 186.882C140.557 184.319 143.507 180.979 144.396 179.461C148.33 172.749 153.14 170.96 156.903 174.81C159.435 177.399 159.034 178.039 156.315 175.751C152.617 172.64 149.7 173.571 146.252 178.962C144.992 180.931 142.718 183.911 141.199 185.583C138.626 188.415 138.582 188.522 140.563 187.139C141.733 186.322 143.784 184.309 145.12 182.665C151.258 175.113 151.377 175.02 153.671 175.97L155.745 176.829L153.266 177.939C151.902 178.549 150.026 180.046 149.095 181.265C146.484 184.685 143.344 187.603 139.288 190.38C137.25 191.775 135.163 193.516 134.65 194.249C133.832 195.416 133.666 195.45 133.31 194.523V194.523ZM225.824 186.358C224.432 185.548 224.333 182.956 225.653 181.861C226.959 180.777 229.658 181.539 230.068 183.107C230.439 184.526 228.933 187.072 227.74 187.042C227.313 187.031 226.45 186.723 225.824 186.358V186.358ZM179.393 184.144C178.507 182.791 178.429 182.134 179.005 180.869C180.325 177.971 185.019 178.15 185.798 181.127C186.809 184.996 181.568 187.464 179.393 184.144V184.144ZM164.799 183.898C164.799 183.589 164.101 182.309 163.249 181.053L161.698 178.768L163.996 179.474C166.222 180.157 166.368 180.093 168.656 177.436C170.876 174.859 173.912 173.673 173.912 175.383C173.912 175.762 173.625 175.895 173.275 175.678C172.029 174.908 170.197 176.629 168.125 180.516C166.259 184.017 164.799 185.502 164.799 183.898V183.898ZM191.582 180.886C187.581 176.329 187.567 170.471 191.547 165.937C193.915 163.24 197.164 162.063 201.035 162.499C204.352 162.873 204.818 163.176 204.27 164.604C203.951 165.436 203.609 165.495 202.512 164.908C201.762 164.507 200.733 164.338 200.224 164.534C199.098 164.965 198.978 168.906 200.058 169.985C200.636 170.564 200.543 171.352 199.666 173.298C198.709 175.421 198.116 175.917 196.14 176.248C192.08 176.928 191.571 177.603 193.533 179.708C195.091 181.379 195.385 183.156 194.104 183.156C193.813 183.156 192.678 182.134 191.582 180.886H191.582ZM196.399 173.096C197.278 172.217 197.997 171.164 197.997 170.755C197.997 169.829 195.905 166.232 195.366 166.232C193.784 166.232 190.471 172.153 191.115 173.83C191.655 175.236 194.678 174.817 196.399 173.096ZM136.7 169.699L136.484 166.23L140.164 166.23L143.845 166.231L143.492 168.997C143.298 170.519 143.036 171.883 142.91 172.028C142.783 172.174 141.383 172.49 139.798 172.731L136.917 173.168L136.7 169.698V169.699ZM218.691 170.796C213.887 169.348 211.015 165.318 211.015 160.026C211.015 156.823 212.789 153.02 214.609 152.322C215.368 152.03 215.572 152.551 215.572 154.779C215.572 160.247 218.308 165.556 222.806 168.814L225.313 170.63L223.29 171.034C220.97 171.499 221.033 171.502 218.691 170.796ZM224.157 168.458C223.373 167.909 222.732 166.89 222.732 166.195C222.732 165.499 222.439 164.93 222.081 164.93C221.723 164.93 221.43 165.288 221.43 165.725C221.43 166.163 220.974 165.87 220.416 165.073C219.858 164.277 219.583 163.333 219.804 162.976C220.024 162.618 219.905 162.326 219.539 162.326C218.577 162.326 217.409 159.878 217.177 157.372C217.066 156.183 216.788 154.542 216.558 153.724C216.147 152.258 216.161 152.26 217.535 153.864L218.929 155.491L218.516 153.538L218.103 151.586L219.836 153.422L221.569 155.259L220.177 156.741C219.07 157.919 218.908 158.55 219.388 159.814C220.277 162.152 221.979 163.294 224.278 163.096C225.796 162.965 226.069 163.084 225.354 163.565C224.53 164.119 224.553 164.269 225.517 164.639C226.133 164.875 226.628 165.697 226.617 166.464C226.597 167.762 226.536 167.78 225.731 166.72C224.376 164.934 223.757 165.387 224.987 167.264C226.345 169.337 226.039 169.776 224.157 168.458V168.458ZM220.717 159.885C220.096 158.253 220.256 157.903 222.523 155.93C226.526 152.446 231.766 149.238 234.066 148.865C235.837 148.578 236.437 148.822 237.602 150.303C240.841 154.42 238.503 157.364 229.966 159.92C222.527 162.147 221.576 162.143 220.717 159.885V159.885ZM100.682 153.302C99.2502 152.65 97.6644 151.617 97.1581 151.005C96.359 150.04 96.3787 149.752 97.3074 148.823C98.2998 147.831 98.4871 147.857 99.8972 149.181C100.733 149.967 101.757 150.609 102.172 150.609C103.422 150.609 105.034 146.782 104.606 144.831C104.273 143.317 104.613 142.734 106.898 140.898C108.871 139.312 109.772 138.934 110.306 139.468C110.705 139.868 112.328 140.194 113.912 140.194H116.793L116.313 138.079C115.552 134.725 115.593 133.512 116.478 133.205C116.97 133.034 117.856 134.169 118.674 136.016C123.608 147.171 111.911 158.409 100.682 153.302V153.302ZM110.326 150.531C112.598 149.366 115.979 145.894 115.979 144.726C115.979 144.041 115.043 143.375 113.382 142.877C111.033 142.173 110.597 142.237 108.825 143.547C107.35 144.638 106.866 145.515 106.866 147.098C106.866 151.102 107.666 151.895 110.326 150.531ZM202.553 150.609C201.837 149.893 201.251 148.767 201.251 148.106C201.251 145.462 205.747 143.648 207.63 145.532C208.902 146.804 208.596 150.465 207.152 151.237C205.284 152.237 204.007 152.063 202.553 150.609ZM89.7796 141.645C88.3205 141.332 87.5956 138.524 88.6471 137.257C90.5688 134.941 94.3351 136.861 93.6018 139.783C93.1999 141.384 91.7831 142.074 89.7796 141.645ZM188.07 139.491C186.762 138.73 186.561 136.268 187.712 135.117C188.908 133.921 191.362 134.188 192.115 135.595C193.031 137.306 192.966 137.972 191.766 139.171C190.589 140.348 189.677 140.427 188.07 139.491V139.491ZM47.1253 137.879C45.5634 136.785 45.2802 134.995 46.3524 132.991C47.1248 131.548 50.7857 131.241 52.0577 132.513C53.225 133.681 53.0002 136.592 51.6484 137.815C50.1627 139.16 48.9775 139.176 47.1253 137.879V137.879ZM134.205 137.019C134.205 136.102 134.616 135.638 135.426 135.638C136.097 135.638 137.635 135.486 138.843 135.3L141.04 134.962L138.505 135.95C137.11 136.493 135.572 137.266 135.087 137.669C134.392 138.246 134.205 138.108 134.205 137.019V137.019ZM26.383 136.945C24.4723 136.174 22.8959 133.76 22.8959 131.604C22.8959 129.698 25.7515 122.044 28.4485 116.722C29.8061 114.043 30.3751 113.508 31.8572 113.516C35.3028 113.535 35.4523 113.957 35.1213 122.708C34.7764 131.828 33.548 135.983 30.8993 136.99C29.0241 137.703 28.2423 137.695 26.383 136.945V136.945ZM148.171 134.691C145.173 131.693 146.647 127.223 151.373 124.98C154.554 123.47 160.442 123.655 168.715 125.522C180.023 128.075 181.742 128.19 183.839 126.538C185.114 125.534 185.632 124.533 185.639 123.06C185.647 121.485 185.799 121.225 186.28 121.968C187.239 123.453 187.052 126.712 185.915 128.336C184.405 130.493 181.524 131.732 178.013 131.736C173.636 131.741 163.377 133.394 157.966 134.966C151.997 136.699 150.127 136.647 148.171 134.691V134.691ZM159.751 127.536C166.332 127.5 167.873 126.934 163.66 126.101C159.017 125.182 154.175 125.496 151.827 126.867C148.796 128.637 148.254 130.299 151.22 128.73C152.867 127.858 154.976 127.563 159.751 127.536V127.536ZM143.318 134.987C141.885 134.685 141.567 134.475 142.461 134.422C143.283 134.372 144.064 133.762 144.314 132.975C144.726 131.674 144.786 131.692 145.659 133.374C146.162 134.343 146.573 135.249 146.573 135.387C146.573 135.667 146.515 135.66 143.318 134.987V134.987ZM208.411 129.04L208.41 125.548L211.991 125.771L215.572 125.994V128.499C215.572 131.431 215.533 131.465 211.504 132.068L208.412 132.531L208.412 129.04H208.411ZM95.4217 129.8C93.6516 129.084 90.6993 125.548 90.1956 123.541C89.0556 118.999 92.6793 113.378 97.3069 112.509C100.595 111.892 102.622 112.528 105.354 115.031C109.62 118.94 108.961 126.171 104.068 129.155C101.907 130.473 97.836 130.776 95.4217 129.8ZM103.662 125.924C105.154 124.432 105.564 123.438 105.564 121.317C105.564 114.648 96.5112 112.282 93.4732 118.157C91.0418 122.859 93.9095 127.827 99.055 127.827C101.176 127.827 102.169 127.416 103.662 125.924V125.924ZM61.9387 127.802C60.955 125.964 61.7316 124.001 63.631 123.524C65.5687 123.038 67.1593 124.221 67.1593 126.149C67.1593 129.099 63.289 130.325 61.9387 127.802V127.802ZM196.945 118.551C197.963 114.837 198.071 112.114 197.338 108.562C196.393 103.978 195.473 102.059 192.896 99.2997L190.965 97.2328H193.211C195.934 97.2328 198.398 98.4477 200.684 100.918C203.27 103.712 203.948 105.446 203.948 109.262C203.948 113.283 202.782 115.905 199.923 118.311C197.427 120.411 196.412 120.493 196.945 118.551V118.551ZM194.752 117.938C194.745 116.975 194.449 116.006 194.091 115.784C193.72 115.555 193.44 116.116 193.44 117.086C193.44 118.057 193.16 118.617 192.789 118.388C192.431 118.167 192.138 117.417 192.138 116.722C192.138 116.027 191.783 115.459 191.349 115.459C190.915 115.459 191.574 114.611 192.814 113.575L195.067 111.692L194.091 108.856C193.196 106.256 192.911 106.004 190.674 105.818C189.331 105.707 188.233 105.341 188.233 105.005C188.233 104.668 188.561 104.393 188.963 104.393C189.48 104.393 189.466 104.118 188.913 103.452C188.484 102.935 188.236 101.837 188.361 101.011C188.583 99.5595 188.628 99.5741 189.744 101.464L190.897 103.417L190.483 100.822L190.069 98.2273L191.429 99.4582C192.244 100.196 192.793 101.497 192.799 102.704C192.806 104.113 192.981 104.447 193.38 103.817C193.834 103.1 194.109 103.21 194.722 104.356C195.146 105.148 195.333 106.213 195.138 106.722C194.942 107.231 195.066 107.648 195.413 107.648C196.178 107.648 196.081 117.609 195.305 118.834C194.936 119.414 194.758 119.126 194.752 117.938H194.752ZM37.2164 116.761C37.2164 113.888 35.2007 112.204 31.7625 112.204C29.2093 112.204 28.828 112.408 28.1034 114.157C27.6585 115.231 26.8548 116.11 26.3174 116.11C25.482 116.11 25.4699 115.952 26.2336 115.025C27.0397 114.047 26.9495 113.985 25.3112 114.393C24.1261 114.689 23.0237 114.515 22.1375 113.895C20.8363 112.983 20.8849 112.933 23.3024 112.701L25.8251 112.459L22.969 111.909L20.1128 111.358L21.9295 110.406C23.5481 109.558 23.9966 109.574 26.0423 110.549C28.0347 111.499 28.2261 111.509 27.4902 110.622C26.7461 109.726 26.9313 109.6 29.0001 109.6C30.297 109.6 31.3581 109.913 31.3581 110.295C31.3581 110.681 31.9067 110.816 32.5914 110.599C34.2071 110.086 39.1692 112.087 39.1692 113.251C39.1692 113.749 39.6991 114.157 40.3467 114.157C40.9943 114.157 42.0927 114.603 42.7877 115.148C43.9651 116.072 43.8849 116.111 41.6102 115.727C38.609 115.219 38.4198 115.914 41.2848 116.922C43.3845 117.66 43.3881 117.669 41.773 118.091C40.8779 118.325 39.8674 118.268 39.5272 117.964C38.6701 117.198 37.7028 117.27 38.1928 118.063C38.4141 118.421 38.2849 118.714 37.9058 118.714C37.5267 118.714 37.2164 117.835 37.2164 116.761V116.761ZM155.018 113.739C154.582 111.431 154.335 109.433 154.468 109.3C154.601 109.167 156.255 108.449 158.144 107.705L161.579 106.351L162.149 107.852C163.264 110.783 164.353 114.82 164.09 115.045C163.943 115.17 162.02 115.872 159.816 116.604L155.809 117.936L155.018 113.739ZM172.657 116.347C170.893 114.104 170.951 112.041 172.841 109.844C174.559 107.847 178.1 107.15 187.03 107.052L192.011 106.997L192.718 109.024C193.106 110.139 193.242 111.348 193.018 111.709C192.441 112.643 184.605 116.131 180.747 117.17C175.882 118.481 174.201 118.31 172.657 116.347V116.347ZM43.0748 113.653C40.8444 111.469 35.5428 109.077 31.1201 108.26C28.2805 107.735 26.6234 107.787 23.866 108.49C21.9004 108.99 20.2922 109.195 20.2922 108.945C20.2922 107.745 23.4735 103.992 25.5019 102.801C27.2192 101.792 28.9101 101.464 32.3901 101.464C36.367 101.464 37.3599 101.712 39.5983 103.263C43.0139 105.63 45.1644 109.473 44.9027 112.742L44.7022 115.247L43.0748 113.653ZM117.444 112.741C115.564 111.684 114.026 110.508 114.026 110.127C114.026 109.745 114.928 107.858 116.029 105.932L118.033 102.432L120.965 104.537C122.578 105.696 124.01 106.826 124.148 107.049C124.453 107.543 121.644 114.834 121.187 114.734C121.008 114.695 119.323 113.798 117.444 112.741V112.741ZM198.792 92.3139C197.101 91.1295 196.839 88.0487 198.324 86.8162C199.759 85.6254 202.647 85.8264 203.641 87.1864C204.864 88.8589 204.715 90.5146 203.204 92.0253C201.637 93.592 200.704 93.6531 198.792 92.3139V92.3139ZM73.6686 84.4853C73.6686 83.457 75.8147 80.2509 76.8872 79.6769C78.4235 78.8547 82.7817 78.7883 82.7817 79.587C82.7817 79.9062 81.9872 80.3668 81.0163 80.6105C80.0453 80.8542 77.9949 81.9012 76.4598 82.9373C74.9246 83.9733 73.6686 84.6699 73.6686 84.4853V84.4853ZM157.114 76.9801C155.613 75.1342 154.384 73.4195 154.384 73.1696C154.384 72.7967 157.044 70.525 160.579 67.8782C160.963 67.5905 162.244 68.8199 163.637 70.8119L166.033 74.2408L162.939 77.2885L159.844 80.3362L157.114 76.9801ZM179.25 76.2728C178.179 75.2021 178.268 72.8235 179.414 71.8724C181.573 70.0805 184.703 72.8365 183.635 75.5893C183.008 77.2055 180.563 77.5865 179.25 76.2728V76.2728ZM103.459 72.5363C104.628 71.4409 106.129 70.5446 106.795 70.5446C108.494 70.5446 113.145 72.2538 114.863 73.5096C116.275 74.5415 116.259 74.5539 114.111 74.1123C111.192 73.5123 104.989 73.4855 102.961 74.064C101.425 74.5018 101.454 74.4153 103.459 72.5363V72.5363Z" fill="black"/>
</svg>
