<svg width="250" height="250" viewBox="0 0 250 250" fill="none" xmlns="http://www.w3.org/2000/svg">
<rect x="0.5" y="0.5" width="249" height="249" rx="2.5" fill="white"/>
<path d="M71.4572 211.467C60.3145 210.423 49.6143 208.121 44.5914 205.687C39.6619 203.299 31.4503 194.427 26.3684 186L25.3069 184.24L26.9015 185.456C34.7151 191.416 68.2467 195.062 99.0508 193.302C124.998 191.819 142.475 188.173 148.326 183.021C149.278 182.184 151.455 180.96 153.165 180.302C157.484 178.639 162.475 175.575 170.143 169.88C185.555 158.433 195.061 152.9 203.897 150.234C206.462 149.46 207.955 149.294 211.25 149.417C214.962 149.555 215.721 149.738 218.689 151.213C222.256 152.986 225.243 155.397 224.607 155.991C224.391 156.192 221.517 156.454 218.22 156.573C212.955 156.763 211.596 156.983 207.063 158.382C197.121 161.451 187.229 166.207 173.88 174.338C169.887 176.771 164.591 179.712 162.112 180.874C157.859 182.869 148.614 186.206 147.341 186.206C147.02 186.206 146.543 186.606 146.282 187.094C146.02 187.583 145.987 187.982 146.208 187.982C147.345 187.982 155.995 185.121 160.264 183.332C165.807 181.01 167.733 179.974 175.81 174.973C185.95 168.694 198.278 162.668 205.633 160.397C211.766 158.502 219.061 157.71 223.04 158.506L224.419 158.782L223.347 159.626C221.933 160.738 219.887 161.44 211.115 163.827C201.091 166.554 194.535 169.253 178.698 177.173C164.083 184.482 159.53 186.331 150.309 188.701C145.943 189.823 144.174 190.478 143.707 191.145C139.186 197.599 133.306 203.336 128.976 205.516C123.462 208.293 113.269 210.361 99.5199 211.493C92.9798 212.032 77.3275 212.017 71.4572 211.467V211.467ZM207.638 154.711C209.672 154.241 212.596 153.721 214.136 153.555C216.402 153.31 216.908 153.114 216.795 152.522C216.577 151.385 213.892 150.651 210.893 150.908C207.449 151.204 203.598 152.234 202.743 153.089C202.142 153.69 202.158 153.858 202.887 154.664C203.336 155.16 203.756 155.566 203.821 155.566C203.886 155.566 205.604 155.181 207.638 154.711ZM65.0183 191.09C61.9653 190.881 58.3684 190.56 57.0252 190.376C54.7259 190.06 54.986 189.996 61.4658 189.269C73.6838 187.898 91.2642 187.371 104.318 187.985C110.668 188.283 116.962 188.661 118.306 188.824L120.748 189.12L116.529 189.665C114.209 189.965 110.113 190.414 107.426 190.662C100.845 191.27 71.9298 191.562 65.0183 191.09ZM41.6538 188.231C33.6254 186.563 28.242 184.464 27.2536 182.617C26.6205 181.434 27.5706 180.302 30.3814 178.889C33.6716 177.234 34.378 177.114 34.378 178.205C34.378 182.269 39.8156 184.919 43.4926 182.647C45.8599 181.183 47.1158 177.332 45.9412 175.137C45.5539 174.414 45.9302 174.274 50.0488 173.616C52.5425 173.217 56.4812 172.688 58.8014 172.44C61.1216 172.191 63.7693 171.888 64.6852 171.765C66.184 171.564 66.3507 171.642 66.3529 172.546C66.3579 174.541 67.2658 176.753 68.8302 178.58C71.0171 181.135 71.9474 181.592 72.5758 180.417C72.9876 179.648 72.849 179.255 71.7063 177.954C70.9587 177.102 70.347 176.232 70.347 176.019C70.347 175.48 74.242 174.205 74.9998 174.496C75.399 174.649 75.9389 174.109 76.5146 172.981C77.1893 171.658 77.7551 171.158 78.8182 170.946C79.5933 170.791 85.0627 170.664 90.9725 170.664H101.718L104.234 172.027L106.751 173.39L107.271 172.249C107.637 171.446 108.132 171.111 108.941 171.117C111.252 171.135 123.543 172.433 128.259 173.157L133.105 173.9L131.486 174.731C127.313 176.872 127.821 182.51 132.321 183.995C136.83 185.483 140.505 179.465 137.196 176.011C136.484 175.268 136.018 174.66 136.16 174.66C136.969 174.66 142.821 176.696 144.6 177.597C147.22 178.922 147.83 179.926 146.859 181.313C145.78 182.853 140.504 185.066 134.07 186.677C128.336 188.112 128.264 188.118 123.412 187.598C109.137 186.068 86.1063 185.63 72.3453 186.626C64.7884 187.174 54.3098 188.297 51.0807 188.905C48.1134 189.465 47.3187 189.408 41.6538 188.231ZM68.4231 184.601C69.1046 183.561 69.1158 183.317 68.5303 182.269C67.3202 180.103 63.6861 180.833 63.6861 183.242C63.6861 185.702 67.0662 186.672 68.4231 184.601ZM79.3908 180.559C80.8044 179.447 83.594 178.849 84.2596 179.514C84.5208 179.775 85.0633 179.989 85.4651 179.989C85.8669 179.989 86.5508 180.382 86.9849 180.861C89.4505 183.586 98.0894 184.214 104.022 182.101C108.4 180.541 111.609 178.549 115.14 175.198C118.04 172.447 118.056 172.419 116.229 173.304C115.209 173.797 112.811 174.646 110.9 175.189C106.589 176.415 99.3624 176.487 94.3263 175.353C88.5009 174.042 88.0192 174.028 86.6173 175.133C85.4947 176.018 85.3751 176.342 85.5877 177.928C85.7453 179.103 85.688 179.499 85.4215 179.078C85.1977 178.724 85.0116 177.961 85.0078 177.381C85.0024 176.54 84.8787 176.43 84.3923 176.833C84.0575 177.111 82.5626 177.948 81.0704 178.694C78.5301 179.964 75.2317 183.073 75.2317 184.199C75.2317 184.472 75.4629 184.927 75.7456 185.21C76.1347 185.599 76.4985 185.208 77.2442 183.599C77.7857 182.43 78.7517 181.062 79.3908 180.559ZM94.3263 178.059C93.4715 177.752 92.3725 177.251 91.884 176.947L90.9959 176.394L91.884 176.613C94.7076 177.307 98.4819 177.775 101.624 177.82C104.723 177.864 104.967 177.921 103.43 178.238C100.782 178.786 96.0905 178.694 94.3263 178.059ZM57.3582 184.879C58.6904 184.874 58.801 184.763 58.7965 183.431C58.7939 182.637 58.6643 181.217 58.5087 180.275L58.2257 178.562L55.4222 178.74C53.8802 178.839 52.4935 179.044 52.3405 179.197C52.1875 179.35 52.2054 180.812 52.3804 182.445L52.6985 185.416L54.3067 185.15C55.1913 185.003 56.5644 184.881 57.3582 184.879H57.3582ZM83.6321 184.054C84.1929 183.007 83.0989 181.321 81.8579 181.321C80.6655 181.321 79.7795 183.267 80.5495 184.195C81.3249 185.129 83.1003 185.048 83.6321 184.054ZM122.926 182.92C124.927 181.157 125.053 180.93 124.48 180.125C123.225 178.361 121.462 176.437 121.11 176.446C120.911 176.451 119.794 177.3 118.628 178.333L116.507 180.211L118.406 182.541C119.45 183.823 120.404 184.865 120.526 184.856C120.648 184.847 121.728 183.976 122.926 182.92ZM114.833 183.321C115.25 182.406 115.198 182.058 114.533 181.323C113.452 180.129 112.261 180.201 111.401 181.514C110.414 183.021 111.187 184.43 113.002 184.43C113.985 184.43 114.459 184.143 114.833 183.321ZM61.939 176.865C62.9125 176.344 63.1095 174.261 62.2651 173.417C61.4172 172.569 59.8007 172.797 59.0486 173.871C58.159 175.141 58.1764 175.368 59.2455 176.437C60.2528 177.444 60.7188 177.518 61.939 176.865ZM131.435 181.613C129.987 180.165 129.941 178.257 131.323 176.958C132.706 175.659 134.511 175.727 135.916 177.132C136.839 178.055 137.002 178.54 136.774 179.68C136.619 180.454 136.244 181.335 135.941 181.639C135.638 181.942 134.757 182.316 133.982 182.471C132.842 182.699 132.358 182.536 131.435 181.613ZM38.5858 181.156C37.2357 180.557 36.1543 178.869 36.1543 177.359C36.1543 176.714 36.8847 176.363 39.6967 175.657C43.7557 174.638 44.2362 174.842 44.2362 177.591C44.2362 180.497 41.2915 182.355 38.5858 181.156ZM34.378 176.502C34.378 175.519 36.5621 173.021 38.0667 172.283C40.0607 171.306 42.1289 171.55 43.9444 172.979C45.0665 173.861 45.0967 173.962 44.3225 174.239C43.8521 174.407 43.0951 174.273 42.6054 173.934C40.91 172.762 38.9045 173.176 36.9368 175.104C35.1697 176.837 34.378 177.269 34.378 176.502ZM144.079 175.348C142.899 173.926 144.632 171.743 146.171 172.712C147.708 173.68 147.16 175.993 145.393 175.993C144.965 175.993 144.373 175.702 144.079 175.348ZM69.227 172.424C68.7839 171.707 69.1001 171.553 71.619 171.254C73.2188 171.065 73.8995 171.139 73.8995 171.504C73.8995 172.088 73.5006 172.253 71.1587 172.641C70.1688 172.805 69.4098 172.72 69.227 172.424ZM66.9144 169.787C67.649 164.31 74.5586 160.356 80.0501 162.27C81.4899 162.772 81.734 163.308 81.0295 164.422C80.6988 164.944 80.4095 164.965 79.4612 164.533C77.1423 163.476 76.5639 163.785 76.5639 166.077C76.5639 167.354 76.8366 168.453 77.2735 168.936C78.1938 169.953 77.7254 170.664 76.1352 170.664C75.1174 170.664 74.9133 170.501 75.0885 169.831C75.3287 168.913 73.6831 165.335 73.0203 165.335C72.3256 165.335 70.3697 167.673 69.5836 169.443C69.1767 170.359 68.6989 171.108 68.5216 171.108C68.3444 171.108 67.8525 171.241 67.4286 171.404C66.7486 171.665 66.688 171.474 66.9144 169.787ZM126.473 170.775C125.733 170.035 125.737 169.991 126.553 169.859C127.024 169.782 128.608 169.336 130.073 168.867C131.539 168.398 134.236 167.887 136.068 167.732C137.9 167.576 140.248 167.085 141.286 166.639C143.13 165.848 143.173 165.849 143.173 166.677C143.173 167.905 142.101 168.289 137.703 168.633C131.63 169.107 131.063 169.751 136.956 169.48C143.217 169.191 144.304 168.647 144.245 165.831C144.2 163.692 144.749 163.41 145.175 165.353C145.51 166.878 144.657 168.537 143.115 169.363C142.595 169.641 140.564 169.952 138.603 170.053C136.642 170.155 133.621 170.533 131.889 170.894C127.885 171.73 127.418 171.72 126.473 170.775V170.775ZM48.6799 170.299C48.9957 169.864 50.4429 167.974 51.8958 166.1C54.3851 162.89 54.5838 162.735 55.3373 163.417C56.2027 164.2 56.4666 163.622 55.627 162.782C55.084 162.239 55.4476 161.544 57.6345 158.943L58.7154 157.657L60.1497 159.291C61.9787 161.374 62.3135 161.072 60.8121 158.694L59.6502 156.853L61.0202 155.124C61.7737 154.172 63.0252 152.86 63.8014 152.206L65.2127 151.019L67.1046 153.181C69.2987 155.689 69.5946 155.335 67.6963 152.474C66.22 150.249 66.4421 149.801 69.0148 149.815C71.9488 149.832 74.335 152.184 74.3406 155.065C74.3436 156.41 74.2683 156.501 73.6048 155.953C72.9329 155.399 72.9156 155.437 73.4143 156.373C73.8657 157.22 73.8393 157.59 73.265 158.466C72.8813 159.052 72.1757 159.741 71.697 159.997C70.9696 160.386 70.6642 160.243 69.8372 159.124C68.541 157.371 67.7772 157.38 69.026 159.134C69.5539 159.875 69.89 160.732 69.7729 161.037C69.5598 161.592 64.1034 164.447 63.2551 164.447C63.0078 164.447 62.5559 164.047 62.2508 163.559C61.539 162.419 60.8422 162.394 61.4501 163.53C62.2149 164.959 62.0312 165.161 58.6904 166.569C56.9197 167.316 53.8138 168.638 51.7883 169.509C48.9961 170.708 48.2445 170.899 48.6799 170.299V170.299ZM59.2455 161.783C58.7761 160.906 57.9133 160.561 57.9133 161.25C57.9133 161.717 58.8778 162.671 59.3499 162.671C59.5539 162.671 59.5069 162.271 59.2455 161.783ZM66.2066 157.049C65.8473 156.354 65.1331 155.406 64.6197 154.941C63.0743 153.542 63.4322 155.246 65.0774 157.119C66.6671 158.93 67.1633 158.899 66.2066 157.049ZM103.732 168.695L104.689 166.725L106.501 167.639C108.785 168.79 108.669 168.657 108.325 169.742C108.072 170.538 107.674 170.664 105.404 170.664H102.775L103.732 168.695ZM117.671 169.966C116.614 168.909 116.807 167.241 118.084 166.404C119.112 165.731 119.276 165.731 120.304 166.404C122.347 167.743 121.475 170.664 119.033 170.664C118.668 170.664 118.055 170.35 117.671 169.966ZM43.5923 169.296C42.3936 168.598 42.5879 166.393 43.9253 165.516C44.9537 164.842 45.1172 164.842 46.1456 165.516C48.8026 167.257 46.343 170.898 43.5923 169.296ZM86.9638 168.05C83.1393 165.718 83.3476 159.567 87.3206 157.513C90.0722 156.09 93.9087 156.946 95.4723 159.333C97.2893 162.106 96.4661 166.361 93.798 167.988C91.9124 169.138 88.7936 169.166 86.9638 168.05ZM93.5492 165.773C94.8818 164.311 95.2005 161.698 94.2012 160.43C92.1632 157.844 89.5593 157.58 87.399 159.74C85.5783 161.561 85.3741 163.672 86.8386 165.534C88.7247 167.932 91.4925 168.031 93.5492 165.773ZM124.333 168.19C123.242 167.099 123.01 165.454 123.782 164.277C124.203 163.634 125.992 162.59 128.382 161.59C130.533 160.691 133.295 159.267 134.518 158.426C137.446 156.414 139.095 155.958 140.82 156.683C143.762 157.92 144.618 161.858 142.493 164.383C141.144 165.986 139.6 166.505 135.18 166.839C133.348 166.977 130.706 167.495 129.307 167.989C126.249 169.07 125.253 169.11 124.333 168.19ZM100.511 165.053C102.31 162.766 101.828 161.987 94.819 155.85C88.1799 150.037 86.2171 145.981 88.5858 142.97C89.6869 141.57 91.9624 141.383 93.3637 142.577C93.8652 143.004 94.9858 145.14 95.8538 147.322C97.253 150.841 98.2898 152.748 102.226 159.046C103.562 161.185 103.322 163.791 101.656 165.223C100.071 166.587 99.3847 166.485 100.511 165.053ZM93.526 152.124C91.5259 149.702 90.5796 148.086 89.6896 145.574L89.0602 143.798L89.0289 145.715C88.9893 148.135 89.448 149.016 92.2527 151.902C95.077 154.809 95.8542 154.944 93.5259 152.124H93.526ZM108.658 165.294C106.573 164.262 105.213 162.392 104.757 159.934C104.36 157.795 104.787 156.486 105.795 156.749C106.396 156.906 106.534 157.303 106.397 158.48C106.228 159.926 106.29 160.006 107.582 160.006C108.375 160.006 109.293 159.634 109.776 159.115C110.535 158.3 110.75 158.274 112.309 158.814C113.291 159.154 114.059 159.729 114.125 160.172C114.269 161.159 115.546 163.115 116.045 163.115C116.255 163.115 116.755 162.615 117.155 162.005C117.9 160.867 119.194 160.488 119.194 161.408C119.194 162.373 117.025 164.765 115.488 165.495C113.405 166.483 110.913 166.41 108.658 165.294ZM113.859 163.892C113.842 162.314 113.166 161.189 111.923 160.666C110.714 160.157 110.41 160.192 109.323 160.967C107.701 162.122 107.768 163.017 109.535 163.785C111.36 164.578 113.867 164.64 113.859 163.892ZM33.4899 162.893V160.006H36.3763H39.2627V162.893V165.779H36.3763H33.4899V162.893ZM123.19 161.851C123.19 160.763 124.184 159.943 127.525 158.271C129.055 157.506 131.379 155.908 132.691 154.72C135.455 152.217 137.6 151.33 139.313 151.981C140.522 152.44 142.036 154.807 141.698 155.707C141.583 156.011 141.357 155.859 141.16 155.344C140.621 153.934 139.097 152.457 138.182 152.457C136.992 152.457 135.677 153.22 133.598 155.117C132.605 156.023 130.857 157.312 129.712 157.983C127.236 159.434 127.024 159.828 129.211 158.914C130.863 158.224 132.526 157.144 135.241 154.998C136.345 154.125 137.249 153.767 138.093 153.866C139.793 154.066 139.944 154.946 138.335 155.268C137.609 155.413 135.752 156.395 134.21 157.449C132.667 158.504 130.706 159.625 129.851 159.941C128.996 160.258 127.244 161.001 125.956 161.593C123.15 162.885 123.19 162.881 123.19 161.851ZM144.392 159.326L143.73 157.313L144.768 157.994C146.171 158.913 146.622 158.859 148.319 157.564C149.754 156.47 151.61 156.071 151.61 156.856C151.61 157.078 151.203 157.152 150.705 157.022C150.026 156.844 149.276 157.354 147.706 159.062C146.555 160.314 145.487 161.339 145.334 161.339C145.18 161.339 144.757 160.433 144.392 159.326ZM45.3576 158.229C44.2056 157.323 38.8186 148.728 38.8186 147.796C38.8186 147.514 39.3141 146.818 39.9197 146.249L41.0208 145.215L43.3612 146.774C48.2224 150.013 51.6964 153.775 51.6964 155.8C51.6964 156.197 51.1123 157.106 50.3984 157.82C48.8491 159.37 46.998 159.52 45.3576 158.229ZM115.104 157.497C114.481 157.322 114.625 157.038 115.898 155.92C119.036 153.164 120.761 148.62 120.08 144.898C119.759 143.14 119.773 143.113 120.694 143.716C122.569 144.944 123.634 147.105 123.634 149.681C123.634 152.726 122.616 154.906 120.568 156.242C118.933 157.307 116.457 157.876 115.104 157.497ZM114.309 155.796C114.309 155.637 114.516 155.121 114.769 154.648C115.392 153.483 114.862 153.563 113.84 154.789C113.151 155.615 113.004 155.658 112.992 155.037C112.984 154.624 113.19 154.154 113.451 153.993C113.712 153.832 113.818 153.42 113.687 153.079C113.517 152.634 113.817 152.457 114.742 152.457C117.112 152.457 118.466 148.679 116.529 147.47C115.524 146.841 115.323 146.146 116.251 146.502C116.691 146.671 116.804 146.444 116.659 145.684C116.54 145.059 116.743 144.396 117.16 144.05C117.781 143.535 117.835 143.64 117.635 144.965L117.409 146.463L118.173 144.908L118.936 143.354L119.092 144.553C119.178 145.213 119.029 146.162 118.762 146.663C118.435 147.272 118.426 147.573 118.734 147.573C119.424 147.573 119.288 149.341 118.577 149.614C118.237 149.744 118.043 150.187 118.144 150.599C118.369 151.516 116.673 154.375 116.11 154.027C115.887 153.889 115.641 154.213 115.562 154.747C115.437 155.601 114.309 156.544 114.309 155.796H114.309ZM82.4477 154.6C81.6539 154.109 81.0045 153.538 81.0045 153.33C81.0045 152.865 82.7934 149.793 83.0643 149.793C83.4694 149.793 86.7773 151.597 86.7773 151.818C86.7773 152.57 84.8919 155.56 84.437 155.529C84.1366 155.509 83.2415 155.091 82.4477 154.6ZM127.286 154.874C125.379 153.539 126.33 150.681 128.68 150.681C129.679 150.681 130.739 151.942 130.739 153.13C130.739 154.024 129.334 155.566 128.519 155.566C128.384 155.566 127.829 155.255 127.286 154.874ZM74.7876 152.923C74.7876 152.704 74.3025 151.949 73.7095 151.244L72.6314 149.963L74.4106 148.879C75.3891 148.283 76.3808 147.445 76.6144 147.018C76.848 146.59 77.3487 146.24 77.727 146.24C78.2243 146.24 78.0116 146.749 76.959 148.078C74.9359 150.633 76.5365 149.731 80.3395 146.173C84.3069 142.462 83.9875 143.745 79.9351 147.797C76.8285 150.903 76.7234 151.072 78.0478 150.82C78.8192 150.673 79.3377 150.678 79.2002 150.83C78.624 151.468 74.7876 153.288 74.7876 152.923V152.923ZM143.617 151.125V148.905H145.838H148.058V151.125V153.345H145.838H143.617V151.125ZM35.2661 152.206C35.2661 152.083 35.6043 151.44 36.0176 150.776L36.769 149.571L35.4382 150.792C33.7939 152.301 33.5554 152.315 33.8285 150.886C33.9584 150.206 34.5952 149.466 35.4322 149.021C36.4947 148.456 36.6403 148.245 36.0531 148.119C35.3391 147.967 35.3359 147.879 36.0078 146.854C36.4048 146.248 36.9802 145.848 37.2863 145.965C37.5925 146.083 37.9393 145.811 38.0569 145.361C38.3271 144.328 41.5999 142.193 41.9862 142.798C42.1533 143.06 42.4235 142.97 42.6523 142.577C42.864 142.214 43.5368 141.766 44.1474 141.583C45.2493 141.253 45.2477 141.261 43.9253 142.689L42.5931 144.128L44.1011 143.363C45.5024 142.652 45.5887 142.651 45.3222 143.346C45.1645 143.757 45.0355 144.176 45.0355 144.279C45.0355 144.381 44.742 144.464 44.3833 144.464C43.9678 144.464 43.8302 144.722 44.004 145.175C44.251 145.819 44.1425 145.817 42.8577 145.152C41.131 144.259 40.0975 144.538 38.6199 146.294C37.5411 147.576 37.5233 147.688 38.1942 148.985C38.6975 149.959 38.7588 150.474 38.4123 150.821C38.0659 151.167 37.9255 151.059 37.9127 150.437C37.8978 149.711 37.7919 149.761 37.26 150.739C36.7044 151.762 35.2661 152.82 35.2661 152.206ZM32.1444 150.887C31.8136 150.488 31.4598 149.014 31.3583 147.611C31.0748 143.691 33.299 140.14 36.9365 138.706C38.7909 137.975 42.392 138.312 44.002 139.367L45.2394 140.178L42.8061 141C38.3096 142.521 34.6928 145.949 33.2948 150.015C32.8049 151.44 32.6814 151.534 32.1444 150.887ZM110.091 150.892C106.756 150.156 104.983 149.486 103.986 148.583C102.92 147.619 102.98 145.135 104.096 144.02C105.654 142.462 107.536 142.867 112.115 145.743C114.401 147.179 116.349 148.587 116.444 148.871C116.539 149.155 116.493 149.878 116.342 150.478C116.11 151.405 115.818 151.562 114.412 151.525C113.5 151.5 111.556 151.215 110.091 150.892V150.892ZM55.0269 150.283C51.933 148.851 49.9202 146.037 49.9202 143.145C49.9202 142.102 50.074 141.923 50.8083 142.115C51.4402 142.281 51.6964 142.721 51.6964 143.642C51.6964 144.354 51.9781 145.044 52.3224 145.176C53.2237 145.522 55.7565 144.095 56.0183 143.094C56.2026 142.389 56.6497 142.244 58.6312 142.244C60.6886 142.244 61.0217 142.362 61.0217 143.093C61.0217 144.025 63.5366 146.385 64.1353 146.015C64.3411 145.888 64.7393 145.087 65.0203 144.236C65.3807 143.144 65.7968 142.688 66.433 142.688C67.1946 142.688 67.2875 142.878 67.0304 143.909C66.1674 147.371 64.218 149.565 61.0665 150.62C58.9275 151.336 57.0779 151.233 55.0269 150.283ZM61.2336 148.301C62.0326 147.717 62.027 147.645 61.0602 146.081C60.204 144.695 59.8283 144.465 58.4321 144.467C57.088 144.47 56.6284 144.727 55.804 145.938C55.2545 146.745 54.8048 147.55 54.8048 147.725C54.8048 148.821 59.8983 149.277 61.2336 148.301ZM134.385 149.052C130.308 147.043 129.17 141.182 132.289 138.252L133.404 137.204V139.002C133.404 142.551 135.624 146.775 138.364 148.442C139.426 149.087 139.534 149.287 138.942 149.514C137.709 149.988 135.913 149.806 134.385 149.052V149.052ZM138.856 147.906C138.62 147.6 138.272 146.951 138.084 146.463C137.849 145.853 137.673 145.759 137.523 146.161C137.366 146.583 137.126 146.49 136.661 145.827C136.307 145.321 136.14 144.707 136.291 144.463C136.441 144.22 136.36 144.02 136.11 144.02C135.386 144.02 134.69 142.357 134.481 140.13C134.3 138.202 134.332 138.127 134.987 138.937C135.652 139.761 135.672 139.741 135.404 138.503C135.159 137.366 135.21 137.275 135.813 137.776C136.192 138.091 136.393 138.525 136.259 138.742C136.125 138.958 136.362 139.135 136.785 139.135C137.438 139.135 137.393 139.308 136.489 140.271L135.422 141.406L136.31 143.046C137.102 144.51 137.364 144.672 138.742 144.557C139.799 144.469 140.095 144.558 139.678 144.838C139.167 145.183 139.173 145.31 139.712 145.634C140.065 145.845 140.497 146.407 140.672 146.882C140.983 147.724 140.969 147.725 140.084 146.924C139.089 146.023 138.925 146.272 139.636 147.602C140.145 148.552 139.538 148.788 138.856 147.906L138.856 147.906ZM137.104 142.859C136.414 141.805 136.437 141.705 137.669 140.414C139.895 138.083 144.019 135.583 145.641 135.583C148.268 135.583 149.428 138.558 147.503 140.361C146.355 141.436 145.514 141.786 141.054 143.045L137.824 143.958L137.104 142.859ZM74.0579 141.661C72.7259 140.441 72.4182 139.818 72.2485 137.998C71.9794 135.111 73.3286 132.983 76.0233 132.044C82.4176 129.817 86.8025 138.97 80.9868 142.406C80.3106 142.805 78.836 143.132 77.71 143.132C76.0115 143.132 75.3893 142.882 74.0579 141.661ZM80.8831 140.234C82.2534 138.863 82.417 138.47 82.1923 137.086C81.8755 135.133 81.2012 134.288 79.3393 133.51C78.1123 132.997 77.6676 133.002 76.3713 133.544C73.2633 134.842 72.7129 138.502 75.2984 140.678C77.2209 142.295 78.9597 142.157 80.8831 140.234V140.234ZM110.577 140.195C110.145 138.824 109.959 137.544 110.163 137.349C110.367 137.155 111.57 136.693 112.836 136.322L115.138 135.648L116.053 138.357C116.556 139.847 116.919 141.102 116.859 141.147C116.553 141.375 112.303 142.688 111.869 142.688C111.591 142.688 111.009 141.566 110.577 140.195V140.195ZM124.332 141.99C123.507 141.165 123.5 141.105 124.094 139.994C124.87 138.545 127.631 139.132 127.631 140.747C127.631 141.477 126.384 142.688 125.633 142.688C125.301 142.688 124.716 142.374 124.332 141.99ZM88.9976 141.372C88.9976 141.148 89.198 140.84 89.4429 140.689C89.7371 140.507 89.7249 140.109 89.4069 139.515C89.1422 139.02 89.0418 138.499 89.1837 138.357C89.3256 138.215 89.4417 138.325 89.4417 138.6C89.4417 138.876 89.8435 139.475 90.3347 139.933C91.2264 140.764 91.226 140.765 90.1126 141.273C89.4994 141.552 88.9976 141.597 88.9976 141.372H88.9976ZM94.9909 140.306C93.5946 138.175 95.6479 135.944 97.9524 137.089C99.2522 137.734 99.5229 139.387 98.5118 140.504C97.4529 141.674 95.8276 141.583 94.9909 140.306ZM65.7954 139.988C63.8579 138.86 65.7028 135.856 67.6826 136.915C68.8279 137.528 68.8456 139.401 67.7118 140.008C66.6896 140.555 66.7703 140.556 65.7953 139.988L65.7954 139.988ZM103.296 137.714C103.003 137.421 102.764 136.846 102.764 136.437C102.764 134.522 105.973 134.063 106.239 135.94C106.505 137.816 104.566 138.984 103.296 137.714ZM53.9578 136.299C53.2391 135.433 53.5031 133.35 54.4031 132.787C55.5694 132.057 57.4188 132.786 57.7499 134.104C57.9117 134.749 57.8446 135.595 57.6008 135.985C57.0061 136.935 54.6544 137.138 53.9578 136.299ZM87.5335 135.616C86.913 134.566 86.8892 134.303 87.3968 134.108C87.8105 133.949 88.1012 134.32 88.2856 135.243C88.6485 137.057 88.4444 137.158 87.5335 135.616ZM118.306 134.685C78.7119 131.078 39.5599 119.419 34.5572 109.745C33.6883 108.064 34.093 107.544 37.6819 105.73C43.3003 102.891 51.9052 100.618 60.7997 99.6238C65.8868 99.0553 79.202 99.046 84.0858 99.6075C88.1108 100.07 88.9965 99.9292 86.9507 99.1514C85.5545 98.6206 84.1129 97.4716 84.1129 96.8898C84.1129 96.1956 87.5648 94.7649 90.3039 94.3237C95.3161 93.5166 100.566 95.1962 104.111 98.741C106.39 101.02 106.464 102.278 104.318 102.278C103.463 102.278 102.764 102.478 102.764 102.722C102.764 102.967 103.138 103.166 103.595 103.166C104.052 103.166 106.996 103.988 110.136 104.992C125.116 109.781 136.212 116.195 145.727 125.564C150.335 130.102 150.71 131.067 148.408 132.467C145.6 134.174 141.29 134.81 131.628 134.944C126.621 135.013 120.626 134.897 118.306 134.685V134.685ZM99.5663 104.854C99.8594 104.561 100.099 103.889 100.099 103.361C100.099 102.511 99.723 102.34 96.8488 101.876C95.0611 101.587 92.6824 101.076 91.5629 100.739C89.6002 100.148 89.5181 100.161 89.2686 101.091C88.8217 102.758 88.9548 103.013 90.6628 103.765C94.0435 105.253 98.609 105.811 99.5663 104.854ZM61.9534 132.593C60.9557 131.429 60.138 130.367 60.1365 130.234C60.1352 130.101 61.1536 129.215 62.4003 128.264L64.667 126.535L65.5212 127.618C65.991 128.213 66.7697 129.231 67.2515 129.879L68.1277 131.059L65.9476 132.884L63.7676 134.709L61.9534 132.593ZM44.0419 131.779C42.412 130.895 41.483 128.963 41.483 126.457C41.483 124.708 41.7099 124.166 42.9666 122.909C44.6624 121.213 46.1667 120.709 48.3238 121.114C53.0159 121.994 54.6089 127.941 51.0011 131.108C49.7237 132.23 49.0704 132.471 47.3514 132.457C46.1997 132.447 44.7105 132.142 44.0419 131.779ZM49.8334 130.037C51.4093 128.711 51.8253 126.982 51.0275 125.072C50.3267 123.395 49.1888 122.705 47.1228 122.705C45.205 122.705 43.4187 124.077 43.0296 125.848C42.1499 129.854 46.7128 132.663 49.8334 130.037ZM77.8693 87.3206C79.507 84.8403 80.1656 82.2611 80.1557 78.366C80.1475 75.1699 79.8939 73.945 78.3167 69.4848C73.2564 55.1754 73.2899 55.3009 73.2607 50.5451C73.236 46.5188 73.3502 45.8767 74.4854 43.6622C75.1739 42.3189 76.334 40.5204 77.0632 39.6656L78.3891 38.1114L77.5438 40.1097C75.0527 45.9991 75.0866 51.0934 77.6579 57.206C82.6532 69.0812 83.431 71.8855 83.1282 76.9302C82.8912 80.8794 81.6647 83.6559 78.7965 86.7362C77.4036 88.2321 77.1705 88.379 77.8693 87.3206ZM107.52 87.6441C109.29 85.2814 110.068 82.4755 110.05 78.521C110.033 75.0447 109.813 73.9175 108.354 69.8618C103.425 56.153 103.04 54.7581 103.019 50.5451C103.002 47.1392 103.17 46.1876 104.154 44.1062C105.256 41.7721 108.618 37.1547 107.871 38.9995C106.015 43.586 105.703 44.9827 105.687 48.7689C105.671 52.5647 105.778 53.0219 107.819 57.8721C111.988 67.7836 113.071 71.3856 113.074 75.3641C113.079 80.0395 111.938 83.1232 109.091 86.133C107.931 87.3592 107.224 88.0392 107.52 87.6441ZM93.3748 85.3339C94.4259 83.2091 94.5456 82.4752 94.522 78.299C94.4958 73.6884 94.4629 73.5471 91.5746 65.6432C88.0581 56.0203 87.5095 53.7045 87.7276 49.4046C87.9141 45.7252 89.259 42.3949 91.6605 39.6656L93.028 38.1114L92.1755 39.8876C90.814 42.7244 90.1917 46.3673 90.4199 50.1638C90.6028 53.2081 90.999 54.5323 93.5234 60.5371C95.115 64.3231 96.7695 68.8192 97.2002 70.5285C98.7037 76.4954 97.3203 82.7446 93.7244 86.2299L92.2013 87.7062L93.3748 85.3339Z" fill="#91908B"/>
<rect x="0.5" y="0.5" width="249" height="249" rx="2.5" stroke="#91908B"/>
</svg>
